<svg width="597" height="98" viewBox="0 0 597 98" fill="none" xmlns="http://www.w3.org/2000/svg">
<path d="M46.08 28.288C55.8934 28.288 63.744 30.1227 69.632 33.792C75.52 37.376 78.464 42.88 78.464 50.304C78.464 53.12 77.952 56.32 76.928 59.904L71.68 77.568C71.5947 77.9093 71.552 78.336 71.552 78.848C71.552 80.2133 72.1067 80.896 73.216 80.896C74.24 80.896 75.0934 80.4693 75.776 79.616C76.544 78.6773 77.056 78.208 77.312 78.208C77.7387 78.208 78.08 78.5067 78.336 79.104C78.6774 79.7013 78.848 80.384 78.848 81.152C78.9334 83.456 78.0374 85.8027 76.16 88.192C74.368 90.5813 71.936 92.544 68.864 94.08C65.792 95.616 62.4214 96.384 58.752 96.384C54.3147 96.384 50.5174 95.5733 47.36 93.952C44.2027 92.3307 42.0267 89.9413 40.832 86.784C38.272 89.856 35.2427 92.2453 31.744 93.952C28.2454 95.5733 24.4907 96.384 20.48 96.384C15.9574 96.384 12.16 95.5307 9.08803 93.824C6.01603 92.032 3.71203 89.7707 2.17603 87.04C0.725367 84.224 3.31998e-05 81.28 3.31998e-05 78.208C3.31998e-05 76.8427 0.128033 75.52 0.384033 74.24C1.74937 68.352 4.69337 63.9147 9.21603 60.928C13.824 57.9413 19.2854 56.448 25.6 56.448C32.6827 56.448 39.6374 57.5573 46.464 59.776L49.664 51.328C50.7734 47.744 51.328 44.9707 51.328 43.008C51.2427 40.96 50.56 39.424 49.28 38.4C48 37.376 46.0374 36.864 43.392 36.864C43.904 38.2293 44.16 39.6373 44.16 41.088C44.16 44.2453 42.9654 46.976 40.576 49.28C38.1867 51.584 34.7734 52.736 30.336 52.736C26.1547 52.736 22.8694 51.84 20.48 50.048C18.176 48.1707 17.024 45.8667 17.024 43.136C17.024 38.8693 19.4134 35.328 24.192 32.512C28.9707 29.696 36.2667 28.288 46.08 28.288ZM38.912 67.072C36.5227 67.072 34.56 68.0107 33.024 69.888C31.5734 71.68 30.848 73.6427 30.848 75.776C30.848 77.1413 31.1467 78.2507 31.744 79.104C32.4267 79.9573 33.3654 80.384 34.56 80.384C35.6694 80.384 36.864 79.9573 38.144 79.104C39.5094 78.1653 40.4907 76.8 41.088 75.008L43.776 67.456C42.3254 67.2 40.704 67.072 38.912 67.072ZM117.798 28.288C122.747 28.288 126.374 29.2267 128.678 31.104C130.982 32.9813 132.134 35.5413 132.134 38.784C132.134 40.7467 131.835 42.624 131.238 44.416L119.462 82.688C119.206 83.712 119.078 84.608 119.078 85.376C119.078 86.4853 119.291 87.3813 119.718 88.064C120.145 88.6613 120.742 89.2587 121.51 89.856C122.107 90.4533 122.534 90.9653 122.79 91.392C123.046 91.7333 123.089 92.2027 122.918 92.8C122.491 93.9093 121.638 94.72 120.358 95.232C119.078 95.744 117.115 96 114.47 96H85.286C83.0674 96 81.446 95.6587 80.422 94.976C79.398 94.208 79.0567 93.2267 79.398 92.032C79.7394 91.008 80.6354 90.112 82.086 89.344C83.366 88.6613 84.4327 87.8507 85.286 86.912C86.1394 85.9733 86.8647 84.48 87.462 82.432L98.598 45.44C98.854 44.672 98.982 44.032 98.982 43.52C98.982 42.5813 98.7687 41.856 98.342 41.344C97.9154 40.7467 97.2754 40.1493 96.422 39.552C95.5687 38.8693 94.9714 38.272 94.63 37.76C94.2887 37.248 94.246 36.5653 94.502 35.712C95.014 33.7493 97.702 32.0427 102.566 30.592C107.43 29.056 112.507 28.288 117.798 28.288ZM126.374 -7.62939e-06C129.702 -7.62939e-06 132.475 1.10933 134.694 3.328C136.913 5.46133 138.022 8.10666 138.022 11.264C138.022 13.4827 137.425 15.6587 136.23 17.792C135.121 19.9253 133.499 21.6747 131.366 23.04C129.318 24.32 127.014 24.96 124.454 24.96C121.211 24.96 118.481 23.8933 116.262 21.76C114.129 19.5413 113.019 16.8107 112.934 13.568C112.934 11.4347 113.489 9.344 114.598 7.296C115.707 5.16266 117.286 3.41333 119.334 2.048C121.382 0.68266 123.729 -7.62939e-06 126.374 -7.62939e-06ZM193.857 28.288C198.636 28.288 202.433 29.7387 205.249 32.64C208.15 35.5413 209.601 39.1253 209.601 43.392C209.601 45.0133 209.43 46.5067 209.089 47.872C208.236 51.3707 206.614 54.0587 204.225 55.936C201.836 57.8133 198.977 58.752 195.649 58.752C192.406 58.752 189.932 57.984 188.225 56.448C186.604 54.912 185.153 52.864 183.873 50.304C183.19 48.8533 182.55 47.7867 181.953 47.104C181.356 46.4213 180.673 46.08 179.905 46.08C179.052 46.08 178.284 46.4213 177.601 47.104C177.004 47.7867 176.449 48.9813 175.937 50.688L166.081 82.688C165.91 83.1147 165.825 83.7547 165.825 84.608C165.825 85.7173 166.124 86.656 166.721 87.424C167.404 88.1067 168.3 88.7893 169.409 89.472C170.433 90.1547 171.116 90.7093 171.457 91.136C171.798 91.5627 171.926 92.1173 171.841 92.8C171.67 93.9093 171.03 94.72 169.921 95.232C168.897 95.744 167.105 96 164.545 96H131.777C129.558 96 127.98 95.6587 127.041 94.976C126.017 94.208 125.633 93.2267 125.889 92.032C126.23 91.008 127.126 90.112 128.577 89.344C129.857 88.6613 130.924 87.8507 131.777 86.912C132.63 85.9733 133.356 84.48 133.953 82.432L145.345 45.44C145.516 45.0133 145.601 44.416 145.601 43.648C145.601 42.7093 145.388 41.984 144.961 41.472C144.62 40.96 144.022 40.32 143.169 39.552C142.316 38.8693 141.718 38.272 141.377 37.76C141.036 37.248 140.993 36.5653 141.249 35.712C141.761 33.7493 144.449 32.0427 149.313 30.592C154.177 29.056 159.254 28.288 164.545 28.288C168.044 28.288 170.945 29.0987 173.249 30.72C175.553 32.256 177.046 34.4747 177.729 37.376C181.825 31.3173 187.201 28.288 193.857 28.288ZM269.164 27.776C275.479 27.776 280.513 30.0373 284.268 34.56C288.108 39.0827 290.028 45.056 290.028 52.48C290.028 56.32 289.559 60.0747 288.62 63.744C285.889 74.752 281.196 83.072 274.54 88.704C267.969 94.336 260.375 97.152 251.756 97.152C246.892 97.152 242.668 96.3413 239.084 94.72C235.585 93.0133 232.769 90.624 230.636 87.552L226.028 91.52C224.236 93.056 222.487 94.208 220.78 94.976C219.073 95.6587 217.111 96 214.892 96H209.26C207.127 96 205.463 95.5733 204.268 94.72C203.159 93.7813 202.604 92.4587 202.604 90.752C202.604 89.984 202.732 89.088 202.988 88.064L224.364 18.56C224.62 17.792 224.748 17.152 224.748 16.64C224.748 15.1893 223.852 13.824 222.06 12.544C221.207 11.776 220.609 11.1787 220.268 10.752C219.927 10.24 219.884 9.59999 220.14 8.83199C220.737 6.86933 223.425 5.16266 228.204 3.712C233.068 2.176 238.145 1.408 243.436 1.408C248.385 1.408 252.012 2.38933 254.316 4.352C256.705 6.22933 257.9 8.78933 257.9 12.032C257.9 13.824 257.601 15.616 257.004 17.408L251.628 34.816C256.577 30.1227 262.423 27.776 269.164 27.776ZM254.7 62.976C256.407 57.1733 257.26 52.48 257.26 48.896C257.26 44.9707 256.108 43.008 253.804 43.008C251.756 43.008 249.836 44.0747 248.044 46.208L239.724 73.344L238.956 75.776C238.529 77.056 238.316 78.3787 238.316 79.744C238.316 82.7307 239.724 84.224 242.54 84.224C244.588 84.224 246.551 82.7307 248.428 79.744C250.305 76.7573 252.396 71.168 254.7 62.976ZM340.045 28.288C351.65 28.288 360.184 30.6347 365.645 35.328C371.192 40.0213 373.965 46.1653 373.965 53.76C373.965 56.32 373.624 59.1787 372.941 62.336C371.32 69.3333 368.29 75.4773 363.853 80.768C359.416 85.9733 353.954 90.0267 347.469 92.928C341.069 95.744 334.114 97.152 326.605 97.152C314.744 97.152 305.954 94.8053 300.237 90.112C294.605 85.3333 291.789 79.0187 291.789 71.168C291.789 68.5227 292.13 65.5787 292.813 62.336C294.434 55.68 297.506 49.792 302.029 44.672C306.637 39.4667 312.226 35.456 318.797 32.64C325.453 29.7387 332.536 28.288 340.045 28.288ZM339.661 39.68C337.869 39.68 335.949 41.3013 333.901 44.544C331.938 47.7013 329.592 53.7173 326.861 62.592C324.13 71.4667 322.765 77.696 322.765 81.28C322.765 83.1573 323.064 84.4373 323.661 85.12C324.258 85.7173 325.069 86.016 326.093 86.016C327.885 86.1867 329.72 84.6507 331.597 81.408C333.56 78.1653 335.992 71.8507 338.893 62.464C341.538 54.1867 342.861 48.1707 342.861 44.416C342.861 42.624 342.562 41.3867 341.965 40.704C341.453 40.0213 340.685 39.68 339.661 39.68ZM424.045 28.288C435.65 28.288 444.184 30.6347 449.645 35.328C455.192 40.0213 457.965 46.1653 457.965 53.76C457.965 56.32 457.624 59.1787 456.941 62.336C455.32 69.3333 452.29 75.4773 447.853 80.768C443.416 85.9733 437.954 90.0267 431.469 92.928C425.069 95.744 418.114 97.152 410.605 97.152C398.744 97.152 389.954 94.8053 384.237 90.112C378.605 85.3333 375.789 79.0187 375.789 71.168C375.789 68.5227 376.13 65.5787 376.813 62.336C378.434 55.68 381.506 49.792 386.029 44.672C390.637 39.4667 396.226 35.456 402.797 32.64C409.453 29.7387 416.536 28.288 424.045 28.288ZM423.661 39.68C421.869 39.68 419.949 41.3013 417.901 44.544C415.938 47.7013 413.592 53.7173 410.861 62.592C408.13 71.4667 406.765 77.696 406.765 81.28C406.765 83.1573 407.064 84.4373 407.661 85.12C408.258 85.7173 409.069 86.016 410.093 86.016C411.885 86.1867 413.72 84.6507 415.597 81.408C417.56 78.1653 419.992 71.8507 422.893 62.464C425.538 54.1867 426.861 48.1707 426.861 44.416C426.861 42.624 426.562 41.3867 425.965 40.704C425.453 40.0213 424.685 39.68 423.661 39.68ZM500.621 27.136C507.704 27.136 513.805 27.776 518.925 29.056C524.13 30.336 528.098 32.128 530.829 34.432C533.645 36.736 535.053 39.3387 535.053 42.24C535.053 45.2267 533.858 47.6587 531.469 49.536C529.165 51.4133 525.922 52.352 521.741 52.352C517.474 52.352 513.848 51.2853 510.861 49.152C507.96 47.0187 506.509 44.3307 506.509 41.088C506.509 39.9787 506.68 38.912 507.021 37.888C505.485 37.4613 504.12 37.248 502.925 37.248C500.792 37.248 499 37.76 497.549 38.784C496.184 39.808 495.544 41.2587 495.629 43.136C495.629 45.3547 496.738 47.232 498.957 48.768C501.176 50.304 504.76 52.224 509.709 54.528C513.976 56.4053 517.474 58.1547 520.205 59.776C523.021 61.312 525.368 63.2747 527.245 65.664C529.208 68.0533 530.189 70.8693 530.189 74.112C530.189 74.7947 530.018 76.0747 529.677 77.952C528.312 83.6693 524.514 88.192 518.285 91.52C512.056 94.848 503.864 96.512 493.709 96.512C482.274 96.512 473.186 94.976 466.445 91.904C459.789 88.832 456.461 84.608 456.461 79.232C456.461 75.5627 457.57 72.7893 459.789 70.912C462.008 69.0347 464.952 68.096 468.621 68.096C472.888 68.096 476.514 69.4187 479.501 72.064C482.573 74.7093 484.109 78.08 484.109 82.176C484.109 83.2853 483.981 84.4373 483.725 85.632C485.773 86.144 487.736 86.4 489.613 86.4C491.832 86.4 493.666 85.8027 495.117 84.608C496.568 83.4133 497.293 81.7493 497.293 79.616C497.208 77.6533 496.226 75.9893 494.349 74.624C492.472 73.1733 489.485 71.4667 485.389 69.504C481.549 67.712 478.392 66.048 475.917 64.512C473.442 62.8907 471.309 60.8853 469.517 58.496C467.81 56.1067 466.957 53.2907 466.957 50.048C466.957 43.0507 469.858 37.504 475.661 33.408C481.549 29.2267 489.869 27.136 500.621 27.136ZM591.6 29.952C593.221 29.952 594.459 30.2933 595.312 30.976C596.251 31.6587 596.72 32.5973 596.72 33.792C596.72 34.1333 596.635 34.7307 596.464 35.584C595.355 39.3387 592.795 41.216 588.784 41.216H581.36L571.76 72.832C571.333 74.112 571.12 75.4347 571.12 76.8C571.12 78.336 571.547 79.4027 572.4 80C573.253 80.5973 574.448 80.896 575.984 80.896C577.349 80.896 579.056 80.7253 581.104 80.384C582.128 80.128 583.024 80 583.792 80C584.389 80 584.816 80.2133 585.072 80.64C585.413 80.9813 585.584 81.4507 585.584 82.048C585.669 83.7547 584.389 85.8453 581.744 88.32C579.184 90.7093 575.685 92.8 571.248 94.592C566.811 96.2987 561.904 97.152 556.528 97.152C550.725 97.152 546.075 95.8293 542.576 93.184C539.077 90.5387 537.328 86.912 537.328 82.304C537.328 80.1707 537.669 78.1227 538.352 76.16L546.544 50.816C546.971 49.3653 547.184 48.2133 547.184 47.36C547.184 45.6533 546.757 44.2027 545.904 43.008C545.136 41.8133 544.027 40.576 542.576 39.296C541.296 38.1013 540.4 37.12 539.888 36.352C539.376 35.4987 539.248 34.5173 539.504 33.408C539.845 32.2987 540.571 31.4453 541.68 30.848C542.789 30.2507 544.539 29.952 546.928 29.952H554.096L562.16 21.888C564.976 19.072 567.536 17.1093 569.84 16C572.229 14.8907 575.301 14.336 579.056 14.336C584.432 14.336 587.12 16.384 587.12 20.48C587.12 21.76 586.949 22.9547 586.608 24.064L584.816 29.952H591.6Z" fill="white"/>
</svg>
