<svg xmlns="http://www.w3.org/2000/svg" xmlns:xlink="http://www.w3.org/1999/xlink" width="500" zoomAndPan="magnify" viewBox="0 0 375 374.999991" height="500" preserveAspectRatio="xMidYMid meet" version="1.0"><defs><g/><clipPath id="841b8b99b6"><path d="M 0 0 L 374.730469 0 L 374.730469 375 L 0 375 Z M 0 0 " clip-rule="nonzero"/></clipPath><clipPath id="7ae188b03e"><path d="M 17.015625 -0.234375 L 357.480469 -0.234375 C 362.054688 -0.234375 366.441406 1.585938 369.675781 4.820312 C 372.910156 8.054688 374.730469 12.441406 374.730469 17.015625 L 374.730469 357.515625 C 374.730469 362.09375 372.910156 366.480469 369.675781 369.714844 C 366.441406 372.949219 362.054688 374.765625 357.480469 374.765625 L 17.015625 374.765625 C 12.441406 374.765625 8.054688 372.949219 4.816406 369.714844 C 1.582031 366.480469 -0.234375 362.09375 -0.234375 357.515625 L -0.234375 17.015625 C -0.234375 12.441406 1.582031 8.054688 4.816406 4.820312 C 8.054688 1.585938 12.441406 -0.234375 17.015625 -0.234375 Z M 17.015625 -0.234375 " clip-rule="nonzero"/></clipPath><clipPath id="5e47717634"><path d="M 0 0 L 374.730469 0 L 374.730469 374.730469 L 0 374.730469 Z M 0 0 " clip-rule="nonzero"/></clipPath><clipPath id="166ab09840"><path d="M 17.015625 -0.234375 L 357.480469 -0.234375 C 362.054688 -0.234375 366.441406 1.585938 369.675781 4.820312 C 372.910156 8.054688 374.730469 12.441406 374.730469 17.015625 L 374.730469 357.515625 C 374.730469 362.09375 372.910156 366.480469 369.675781 369.714844 C 366.441406 372.949219 362.054688 374.765625 357.480469 374.765625 L 17.015625 374.765625 C 12.441406 374.765625 8.054688 372.949219 4.816406 369.714844 C 1.582031 366.480469 -0.234375 362.09375 -0.234375 357.515625 L -0.234375 17.015625 C -0.234375 12.441406 1.582031 8.054688 4.816406 4.820312 C 8.054688 1.585938 12.441406 -0.234375 17.015625 -0.234375 Z M 17.015625 -0.234375 " clip-rule="nonzero"/></clipPath><linearGradient x1="128" gradientTransform="matrix(1.464701, 0, 0, 1.464701, -0.234627, -0.23934)" y1="0.163406" x2="128" gradientUnits="userSpaceOnUse" y2="256.004682" id="d2b2a5830d"><stop stop-opacity="1" stop-color="rgb(0.00457764%, 18.075562%, 52.96936%)" offset="0"/><stop stop-opacity="1" stop-color="rgb(0.0396729%, 18.29834%, 53.152466%)" offset="0.00390625"/><stop stop-opacity="1" stop-color="rgb(0.0747681%, 18.522644%, 53.337097%)" offset="0.0078125"/><stop stop-opacity="1" stop-color="rgb(0.109863%, 18.745422%, 53.520203%)" offset="0.0117187"/><stop stop-opacity="1" stop-color="rgb(0.146484%, 18.969727%, 53.703308%)" offset="0.015625"/><stop stop-opacity="1" stop-color="rgb(0.18158%, 19.192505%, 53.886414%)" offset="0.0195312"/><stop stop-opacity="1" stop-color="rgb(0.216675%, 19.416809%, 54.071045%)" offset="0.0234375"/><stop stop-opacity="1" stop-color="rgb(0.25177%, 19.639587%, 54.25415%)" offset="0.0273437"/><stop stop-opacity="1" stop-color="rgb(0.286865%, 19.863892%, 54.438782%)" offset="0.03125"/><stop stop-opacity="1" stop-color="rgb(0.32196%, 20.08667%, 54.621887%)" offset="0.0351563"/><stop stop-opacity="1" stop-color="rgb(0.357056%, 20.310974%, 54.806519%)" offset="0.0390625"/><stop stop-opacity="1" stop-color="rgb(0.392151%, 20.533752%, 54.989624%)" offset="0.0429688"/><stop stop-opacity="1" stop-color="rgb(0.427246%, 20.758057%, 55.174255%)" offset="0.046875"/><stop stop-opacity="1" stop-color="rgb(0.462341%, 20.980835%, 55.357361%)" offset="0.0507812"/><stop stop-opacity="1" stop-color="rgb(0.497437%, 21.205139%, 55.540466%)" offset="0.0546875"/><stop stop-opacity="1" stop-color="rgb(0.532532%, 21.427917%, 55.723572%)" offset="0.0585938"/><stop stop-opacity="1" stop-color="rgb(0.567627%, 21.650696%, 55.908203%)" offset="0.0625"/><stop stop-opacity="1" stop-color="rgb(0.602722%, 21.873474%, 56.091309%)" offset="0.0664062"/><stop stop-opacity="1" stop-color="rgb(0.639343%, 22.097778%, 56.27594%)" offset="0.0703125"/><stop stop-opacity="1" stop-color="rgb(0.674438%, 22.320557%, 56.459045%)" offset="0.0742188"/><stop stop-opacity="1" stop-color="rgb(0.709534%, 22.544861%, 56.643677%)" offset="0.078125"/><stop stop-opacity="1" stop-color="rgb(0.744629%, 22.767639%, 56.826782%)" offset="0.0820312"/><stop stop-opacity="1" stop-color="rgb(0.779724%, 22.991943%, 57.009888%)" offset="0.0859375"/><stop stop-opacity="1" stop-color="rgb(0.814819%, 23.214722%, 57.192993%)" offset="0.0898438"/><stop stop-opacity="1" stop-color="rgb(0.849915%, 23.439026%, 57.377625%)" offset="0.09375"/><stop stop-opacity="1" stop-color="rgb(0.88501%, 23.661804%, 57.56073%)" offset="0.0976562"/><stop stop-opacity="1" stop-color="rgb(0.920105%, 23.886108%, 57.745361%)" offset="0.101562"/><stop stop-opacity="1" stop-color="rgb(0.9552%, 24.108887%, 57.928467%)" offset="0.105469"/><stop stop-opacity="1" stop-color="rgb(0.990295%, 24.333191%, 58.113098%)" offset="0.109375"/><stop stop-opacity="1" stop-color="rgb(1.025391%, 24.555969%, 58.296204%)" offset="0.113281"/><stop stop-opacity="1" stop-color="rgb(1.062012%, 24.780273%, 58.480835%)" offset="0.117187"/><stop stop-opacity="1" stop-color="rgb(1.097107%, 25.003052%, 58.66394%)" offset="0.121094"/><stop stop-opacity="1" stop-color="rgb(1.132202%, 25.227356%, 58.847046%)" offset="0.125"/><stop stop-opacity="1" stop-color="rgb(1.167297%, 25.450134%, 59.030151%)" offset="0.128906"/><stop stop-opacity="1" stop-color="rgb(1.202393%, 25.674438%, 59.214783%)" offset="0.132812"/><stop stop-opacity="1" stop-color="rgb(1.237488%, 25.897217%, 59.397888%)" offset="0.136719"/><stop stop-opacity="1" stop-color="rgb(1.272583%, 26.121521%, 59.58252%)" offset="0.140625"/><stop stop-opacity="1" stop-color="rgb(1.307678%, 26.344299%, 59.765625%)" offset="0.144531"/><stop stop-opacity="1" stop-color="rgb(1.342773%, 26.567078%, 59.950256%)" offset="0.148438"/><stop stop-opacity="1" stop-color="rgb(1.377869%, 26.789856%, 60.133362%)" offset="0.152344"/><stop stop-opacity="1" stop-color="rgb(1.412964%, 27.01416%, 60.316467%)" offset="0.15625"/><stop stop-opacity="1" stop-color="rgb(1.448059%, 27.236938%, 60.499573%)" offset="0.160156"/><stop stop-opacity="1" stop-color="rgb(1.483154%, 27.461243%, 60.684204%)" offset="0.164062"/><stop stop-opacity="1" stop-color="rgb(1.51825%, 27.684021%, 60.86731%)" offset="0.167969"/><stop stop-opacity="1" stop-color="rgb(1.554871%, 27.908325%, 61.051941%)" offset="0.171875"/><stop stop-opacity="1" stop-color="rgb(1.589966%, 28.131104%, 61.235046%)" offset="0.175781"/><stop stop-opacity="1" stop-color="rgb(1.625061%, 28.355408%, 61.419678%)" offset="0.179688"/><stop stop-opacity="1" stop-color="rgb(1.660156%, 28.578186%, 61.602783%)" offset="0.183594"/><stop stop-opacity="1" stop-color="rgb(1.695251%, 28.80249%, 61.787415%)" offset="0.1875"/><stop stop-opacity="1" stop-color="rgb(1.730347%, 29.025269%, 61.97052%)" offset="0.191406"/><stop stop-opacity="1" stop-color="rgb(1.765442%, 29.249573%, 62.153625%)" offset="0.195312"/><stop stop-opacity="1" stop-color="rgb(1.800537%, 29.472351%, 62.336731%)" offset="0.199219"/><stop stop-opacity="1" stop-color="rgb(1.835632%, 29.696655%, 62.521362%)" offset="0.203125"/><stop stop-opacity="1" stop-color="rgb(1.870728%, 29.919434%, 62.704468%)" offset="0.207031"/><stop stop-opacity="1" stop-color="rgb(1.905823%, 30.143738%, 62.889099%)" offset="0.210937"/><stop stop-opacity="1" stop-color="rgb(1.940918%, 30.366516%, 63.072205%)" offset="0.214844"/><stop stop-opacity="1" stop-color="rgb(1.976013%, 30.59082%, 63.256836%)" offset="0.21875"/><stop stop-opacity="1" stop-color="rgb(2.011108%, 30.813599%, 63.439941%)" offset="0.222656"/><stop stop-opacity="1" stop-color="rgb(2.047729%, 31.037903%, 63.623047%)" offset="0.226562"/><stop stop-opacity="1" stop-color="rgb(2.082825%, 31.260681%, 63.806152%)" offset="0.230469"/><stop stop-opacity="1" stop-color="rgb(2.11792%, 31.483459%, 63.990784%)" offset="0.234375"/><stop stop-opacity="1" stop-color="rgb(2.153015%, 31.706238%, 64.173889%)" offset="0.238281"/><stop stop-opacity="1" stop-color="rgb(2.18811%, 31.930542%, 64.358521%)" offset="0.242187"/><stop stop-opacity="1" stop-color="rgb(2.223206%, 32.15332%, 64.541626%)" offset="0.246094"/><stop stop-opacity="1" stop-color="rgb(2.258301%, 32.377625%, 64.726257%)" offset="0.25"/><stop stop-opacity="1" stop-color="rgb(2.293396%, 32.600403%, 64.909363%)" offset="0.253906"/><stop stop-opacity="1" stop-color="rgb(2.328491%, 32.824707%, 65.092468%)" offset="0.257812"/><stop stop-opacity="1" stop-color="rgb(2.363586%, 33.047485%, 65.275574%)" offset="0.261719"/><stop stop-opacity="1" stop-color="rgb(2.398682%, 33.27179%, 65.460205%)" offset="0.265625"/><stop stop-opacity="1" stop-color="rgb(2.433777%, 33.494568%, 65.643311%)" offset="0.269531"/><stop stop-opacity="1" stop-color="rgb(2.468872%, 33.718872%, 65.827942%)" offset="0.273438"/><stop stop-opacity="1" stop-color="rgb(2.503967%, 33.94165%, 66.011047%)" offset="0.277344"/><stop stop-opacity="1" stop-color="rgb(2.540588%, 34.165955%, 66.195679%)" offset="0.28125"/><stop stop-opacity="1" stop-color="rgb(2.575684%, 34.388733%, 66.378784%)" offset="0.285156"/><stop stop-opacity="1" stop-color="rgb(2.610779%, 34.613037%, 66.563416%)" offset="0.289063"/><stop stop-opacity="1" stop-color="rgb(2.645874%, 34.835815%, 66.746521%)" offset="0.292969"/><stop stop-opacity="1" stop-color="rgb(2.680969%, 35.06012%, 66.929626%)" offset="0.296875"/><stop stop-opacity="1" stop-color="rgb(2.716064%, 35.282898%, 67.112732%)" offset="0.300781"/><stop stop-opacity="1" stop-color="rgb(2.75116%, 35.507202%, 67.297363%)" offset="0.304688"/><stop stop-opacity="1" stop-color="rgb(2.786255%, 35.72998%, 67.480469%)" offset="0.308594"/><stop stop-opacity="1" stop-color="rgb(2.82135%, 35.954285%, 67.6651%)" offset="0.3125"/><stop stop-opacity="1" stop-color="rgb(2.856445%, 36.177063%, 67.848206%)" offset="0.316406"/><stop stop-opacity="1" stop-color="rgb(2.891541%, 36.399841%, 68.032837%)" offset="0.320313"/><stop stop-opacity="1" stop-color="rgb(2.926636%, 36.62262%, 68.215942%)" offset="0.324219"/><stop stop-opacity="1" stop-color="rgb(2.963257%, 36.846924%, 68.399048%)" offset="0.328125"/><stop stop-opacity="1" stop-color="rgb(2.998352%, 37.069702%, 68.582153%)" offset="0.332031"/><stop stop-opacity="1" stop-color="rgb(3.033447%, 37.294006%, 68.766785%)" offset="0.335938"/><stop stop-opacity="1" stop-color="rgb(3.068542%, 37.516785%, 68.94989%)" offset="0.339844"/><stop stop-opacity="1" stop-color="rgb(3.103638%, 37.741089%, 69.134521%)" offset="0.34375"/><stop stop-opacity="1" stop-color="rgb(3.138733%, 37.963867%, 69.317627%)" offset="0.347656"/><stop stop-opacity="1" stop-color="rgb(3.173828%, 38.188171%, 69.502258%)" offset="0.351563"/><stop stop-opacity="1" stop-color="rgb(3.208923%, 38.41095%, 69.685364%)" offset="0.355469"/><stop stop-opacity="1" stop-color="rgb(3.244019%, 38.635254%, 69.869995%)" offset="0.359375"/><stop stop-opacity="1" stop-color="rgb(3.279114%, 38.858032%, 70.053101%)" offset="0.363281"/><stop stop-opacity="1" stop-color="rgb(3.314209%, 39.082336%, 70.236206%)" offset="0.367188"/><stop stop-opacity="1" stop-color="rgb(3.349304%, 39.305115%, 70.419312%)" offset="0.371094"/><stop stop-opacity="1" stop-color="rgb(3.384399%, 39.529419%, 70.603943%)" offset="0.375"/><stop stop-opacity="1" stop-color="rgb(3.419495%, 39.752197%, 70.787048%)" offset="0.378906"/><stop stop-opacity="1" stop-color="rgb(3.456116%, 39.976501%, 70.97168%)" offset="0.382813"/><stop stop-opacity="1" stop-color="rgb(3.491211%, 40.19928%, 71.154785%)" offset="0.386719"/><stop stop-opacity="1" stop-color="rgb(3.526306%, 40.423584%, 71.339417%)" offset="0.390625"/><stop stop-opacity="1" stop-color="rgb(3.561401%, 40.646362%, 71.522522%)" offset="0.394531"/><stop stop-opacity="1" stop-color="rgb(3.596497%, 40.870667%, 71.705627%)" offset="0.398438"/><stop stop-opacity="1" stop-color="rgb(3.631592%, 41.093445%, 71.888733%)" offset="0.402344"/><stop stop-opacity="1" stop-color="rgb(3.666687%, 41.316223%, 72.073364%)" offset="0.40625"/><stop stop-opacity="1" stop-color="rgb(3.701782%, 41.539001%, 72.25647%)" offset="0.410156"/><stop stop-opacity="1" stop-color="rgb(3.736877%, 41.763306%, 72.441101%)" offset="0.414063"/><stop stop-opacity="1" stop-color="rgb(3.771973%, 41.986084%, 72.624207%)" offset="0.417969"/><stop stop-opacity="1" stop-color="rgb(3.807068%, 42.210388%, 72.808838%)" offset="0.421875"/><stop stop-opacity="1" stop-color="rgb(3.842163%, 42.433167%, 72.991943%)" offset="0.425781"/><stop stop-opacity="1" stop-color="rgb(3.877258%, 42.657471%, 73.176575%)" offset="0.429688"/><stop stop-opacity="1" stop-color="rgb(3.912354%, 42.880249%, 73.35968%)" offset="0.433594"/><stop stop-opacity="1" stop-color="rgb(3.948975%, 43.104553%, 73.542786%)" offset="0.4375"/><stop stop-opacity="1" stop-color="rgb(3.98407%, 43.327332%, 73.725891%)" offset="0.441406"/><stop stop-opacity="1" stop-color="rgb(4.019165%, 43.551636%, 73.910522%)" offset="0.445313"/><stop stop-opacity="1" stop-color="rgb(4.05426%, 43.774414%, 74.093628%)" offset="0.449219"/><stop stop-opacity="1" stop-color="rgb(4.089355%, 43.998718%, 74.278259%)" offset="0.453125"/><stop stop-opacity="1" stop-color="rgb(4.124451%, 44.221497%, 74.461365%)" offset="0.457031"/><stop stop-opacity="1" stop-color="rgb(4.159546%, 44.445801%, 74.645996%)" offset="0.460938"/><stop stop-opacity="1" stop-color="rgb(4.194641%, 44.668579%, 74.829102%)" offset="0.464844"/><stop stop-opacity="1" stop-color="rgb(4.229736%, 44.892883%, 75.012207%)" offset="0.46875"/><stop stop-opacity="1" stop-color="rgb(4.264832%, 45.115662%, 75.195312%)" offset="0.472656"/><stop stop-opacity="1" stop-color="rgb(4.299927%, 45.339966%, 75.379944%)" offset="0.476563"/><stop stop-opacity="1" stop-color="rgb(4.335022%, 45.562744%, 75.563049%)" offset="0.480469"/><stop stop-opacity="1" stop-color="rgb(4.371643%, 45.787048%, 75.747681%)" offset="0.484375"/><stop stop-opacity="1" stop-color="rgb(4.406738%, 46.009827%, 75.930786%)" offset="0.488281"/><stop stop-opacity="1" stop-color="rgb(4.441833%, 46.232605%, 76.115417%)" offset="0.492188"/><stop stop-opacity="1" stop-color="rgb(4.476929%, 46.455383%, 76.298523%)" offset="0.496094"/><stop stop-opacity="1" stop-color="rgb(4.512024%, 46.679688%, 76.481628%)" offset="0.5"/><stop stop-opacity="1" stop-color="rgb(4.547119%, 46.902466%, 76.664734%)" offset="0.503906"/><stop stop-opacity="1" stop-color="rgb(4.582214%, 47.12677%, 76.849365%)" offset="0.507812"/><stop stop-opacity="1" stop-color="rgb(4.61731%, 47.349548%, 77.032471%)" offset="0.511719"/><stop stop-opacity="1" stop-color="rgb(4.652405%, 47.573853%, 77.217102%)" offset="0.515625"/><stop stop-opacity="1" stop-color="rgb(4.6875%, 47.796631%, 77.400208%)" offset="0.519531"/><stop stop-opacity="1" stop-color="rgb(4.722595%, 48.020935%, 77.584839%)" offset="0.523438"/><stop stop-opacity="1" stop-color="rgb(4.75769%, 48.243713%, 77.767944%)" offset="0.527344"/><stop stop-opacity="1" stop-color="rgb(4.792786%, 48.468018%, 77.952576%)" offset="0.53125"/><stop stop-opacity="1" stop-color="rgb(4.827881%, 48.690796%, 78.135681%)" offset="0.535156"/><stop stop-opacity="1" stop-color="rgb(4.864502%, 48.9151%, 78.318787%)" offset="0.539062"/><stop stop-opacity="1" stop-color="rgb(4.899597%, 49.137878%, 78.501892%)" offset="0.542969"/><stop stop-opacity="1" stop-color="rgb(4.934692%, 49.362183%, 78.686523%)" offset="0.546875"/><stop stop-opacity="1" stop-color="rgb(4.969788%, 49.584961%, 78.869629%)" offset="0.550781"/><stop stop-opacity="1" stop-color="rgb(5.004883%, 49.809265%, 79.05426%)" offset="0.554688"/><stop stop-opacity="1" stop-color="rgb(5.039978%, 50.032043%, 79.237366%)" offset="0.558594"/><stop stop-opacity="1" stop-color="rgb(5.075073%, 50.256348%, 79.421997%)" offset="0.5625"/><stop stop-opacity="1" stop-color="rgb(5.110168%, 50.479126%, 79.605103%)" offset="0.566406"/><stop stop-opacity="1" stop-color="rgb(5.145264%, 50.70343%, 79.788208%)" offset="0.570313"/><stop stop-opacity="1" stop-color="rgb(5.180359%, 50.926208%, 79.971313%)" offset="0.574219"/><stop stop-opacity="1" stop-color="rgb(5.215454%, 51.148987%, 80.155945%)" offset="0.578125"/><stop stop-opacity="1" stop-color="rgb(5.250549%, 51.371765%, 80.33905%)" offset="0.582031"/><stop stop-opacity="1" stop-color="rgb(5.285645%, 51.596069%, 80.523682%)" offset="0.585938"/><stop stop-opacity="1" stop-color="rgb(5.32074%, 51.818848%, 80.706787%)" offset="0.589844"/><stop stop-opacity="1" stop-color="rgb(5.357361%, 52.043152%, 80.891418%)" offset="0.59375"/><stop stop-opacity="1" stop-color="rgb(5.392456%, 52.26593%, 81.074524%)" offset="0.597656"/><stop stop-opacity="1" stop-color="rgb(5.427551%, 52.490234%, 81.259155%)" offset="0.601562"/><stop stop-opacity="1" stop-color="rgb(5.462646%, 52.713013%, 81.442261%)" offset="0.605469"/><stop stop-opacity="1" stop-color="rgb(5.497742%, 52.937317%, 81.625366%)" offset="0.609375"/><stop stop-opacity="1" stop-color="rgb(5.532837%, 53.160095%, 81.808472%)" offset="0.613281"/><stop stop-opacity="1" stop-color="rgb(5.567932%, 53.384399%, 81.993103%)" offset="0.617188"/><stop stop-opacity="1" stop-color="rgb(5.603027%, 53.607178%, 82.176208%)" offset="0.621094"/><stop stop-opacity="1" stop-color="rgb(5.638123%, 53.831482%, 82.36084%)" offset="0.625"/><stop stop-opacity="1" stop-color="rgb(5.673218%, 54.05426%, 82.543945%)" offset="0.628906"/><stop stop-opacity="1" stop-color="rgb(5.708313%, 54.278564%, 82.728577%)" offset="0.632813"/><stop stop-opacity="1" stop-color="rgb(5.743408%, 54.501343%, 82.911682%)" offset="0.636719"/><stop stop-opacity="1" stop-color="rgb(5.780029%, 54.725647%, 83.094788%)" offset="0.640625"/><stop stop-opacity="1" stop-color="rgb(5.815125%, 54.948425%, 83.277893%)" offset="0.644531"/><stop stop-opacity="1" stop-color="rgb(5.85022%, 55.172729%, 83.462524%)" offset="0.648438"/><stop stop-opacity="1" stop-color="rgb(5.885315%, 55.395508%, 83.64563%)" offset="0.652344"/><stop stop-opacity="1" stop-color="rgb(5.92041%, 55.619812%, 83.830261%)" offset="0.65625"/><stop stop-opacity="1" stop-color="rgb(5.955505%, 55.84259%, 84.013367%)" offset="0.660156"/><stop stop-opacity="1" stop-color="rgb(5.990601%, 56.065369%, 84.197998%)" offset="0.664062"/><stop stop-opacity="1" stop-color="rgb(6.025696%, 56.288147%, 84.381104%)" offset="0.667969"/><stop stop-opacity="1" stop-color="rgb(6.060791%, 56.512451%, 84.565735%)" offset="0.671875"/><stop stop-opacity="1" stop-color="rgb(6.095886%, 56.735229%, 84.74884%)" offset="0.675781"/><stop stop-opacity="1" stop-color="rgb(6.130981%, 56.959534%, 84.931946%)" offset="0.679688"/><stop stop-opacity="1" stop-color="rgb(6.166077%, 57.182312%, 85.115051%)" offset="0.683594"/><stop stop-opacity="1" stop-color="rgb(6.201172%, 57.406616%, 85.299683%)" offset="0.6875"/><stop stop-opacity="1" stop-color="rgb(6.236267%, 57.629395%, 85.482788%)" offset="0.691406"/><stop stop-opacity="1" stop-color="rgb(6.272888%, 57.853699%, 85.667419%)" offset="0.695313"/><stop stop-opacity="1" stop-color="rgb(6.307983%, 58.076477%, 85.850525%)" offset="0.699219"/><stop stop-opacity="1" stop-color="rgb(6.343079%, 58.300781%, 86.035156%)" offset="0.703125"/><stop stop-opacity="1" stop-color="rgb(6.378174%, 58.52356%, 86.218262%)" offset="0.707031"/><stop stop-opacity="1" stop-color="rgb(6.413269%, 58.747864%, 86.401367%)" offset="0.710938"/><stop stop-opacity="1" stop-color="rgb(6.448364%, 58.970642%, 86.584473%)" offset="0.714844"/><stop stop-opacity="1" stop-color="rgb(6.483459%, 59.194946%, 86.769104%)" offset="0.71875"/><stop stop-opacity="1" stop-color="rgb(6.518555%, 59.417725%, 86.952209%)" offset="0.722656"/><stop stop-opacity="1" stop-color="rgb(6.55365%, 59.642029%, 87.136841%)" offset="0.726562"/><stop stop-opacity="1" stop-color="rgb(6.588745%, 59.864807%, 87.319946%)" offset="0.730469"/><stop stop-opacity="1" stop-color="rgb(6.62384%, 60.089111%, 87.504578%)" offset="0.734375"/><stop stop-opacity="1" stop-color="rgb(6.658936%, 60.31189%, 87.687683%)" offset="0.738281"/><stop stop-opacity="1" stop-color="rgb(6.694031%, 60.536194%, 87.872314%)" offset="0.742188"/><stop stop-opacity="1" stop-color="rgb(6.729126%, 60.758972%, 88.05542%)" offset="0.746094"/><stop stop-opacity="1" stop-color="rgb(6.765747%, 60.98175%, 88.238525%)" offset="0.75"/><stop stop-opacity="1" stop-color="rgb(6.800842%, 61.204529%, 88.421631%)" offset="0.753906"/><stop stop-opacity="1" stop-color="rgb(6.835938%, 61.428833%, 88.606262%)" offset="0.757813"/><stop stop-opacity="1" stop-color="rgb(6.871033%, 61.651611%, 88.789368%)" offset="0.761719"/><stop stop-opacity="1" stop-color="rgb(6.906128%, 61.875916%, 88.973999%)" offset="0.765625"/><stop stop-opacity="1" stop-color="rgb(6.941223%, 62.098694%, 89.157104%)" offset="0.769531"/><stop stop-opacity="1" stop-color="rgb(6.976318%, 62.322998%, 89.341736%)" offset="0.773438"/><stop stop-opacity="1" stop-color="rgb(7.011414%, 62.545776%, 89.524841%)" offset="0.777344"/><stop stop-opacity="1" stop-color="rgb(7.046509%, 62.770081%, 89.707947%)" offset="0.78125"/><stop stop-opacity="1" stop-color="rgb(7.081604%, 62.992859%, 89.891052%)" offset="0.785156"/><stop stop-opacity="1" stop-color="rgb(7.116699%, 63.217163%, 90.075684%)" offset="0.789062"/><stop stop-opacity="1" stop-color="rgb(7.151794%, 63.439941%, 90.258789%)" offset="0.792969"/><stop stop-opacity="1" stop-color="rgb(7.18689%, 63.664246%, 90.44342%)" offset="0.796875"/><stop stop-opacity="1" stop-color="rgb(7.221985%, 63.887024%, 90.626526%)" offset="0.800781"/><stop stop-opacity="1" stop-color="rgb(7.258606%, 64.111328%, 90.811157%)" offset="0.804688"/><stop stop-opacity="1" stop-color="rgb(7.293701%, 64.334106%, 90.994263%)" offset="0.808594"/><stop stop-opacity="1" stop-color="rgb(7.328796%, 64.558411%, 91.177368%)" offset="0.8125"/><stop stop-opacity="1" stop-color="rgb(7.363892%, 64.781189%, 91.360474%)" offset="0.816406"/><stop stop-opacity="1" stop-color="rgb(7.398987%, 65.005493%, 91.545105%)" offset="0.820313"/><stop stop-opacity="1" stop-color="rgb(7.434082%, 65.228271%, 91.72821%)" offset="0.824219"/><stop stop-opacity="1" stop-color="rgb(7.469177%, 65.452576%, 91.912842%)" offset="0.828125"/><stop stop-opacity="1" stop-color="rgb(7.504272%, 65.675354%, 92.095947%)" offset="0.832031"/><stop stop-opacity="1" stop-color="rgb(7.539368%, 65.898132%, 92.280579%)" offset="0.835938"/><stop stop-opacity="1" stop-color="rgb(7.574463%, 66.120911%, 92.463684%)" offset="0.839844"/><stop stop-opacity="1" stop-color="rgb(7.609558%, 66.345215%, 92.648315%)" offset="0.84375"/><stop stop-opacity="1" stop-color="rgb(7.644653%, 66.567993%, 92.831421%)" offset="0.847656"/><stop stop-opacity="1" stop-color="rgb(7.681274%, 66.792297%, 93.014526%)" offset="0.851562"/><stop stop-opacity="1" stop-color="rgb(7.71637%, 67.015076%, 93.197632%)" offset="0.855469"/><stop stop-opacity="1" stop-color="rgb(7.751465%, 67.23938%, 93.382263%)" offset="0.859375"/><stop stop-opacity="1" stop-color="rgb(7.78656%, 67.462158%, 93.565369%)" offset="0.863281"/><stop stop-opacity="1" stop-color="rgb(7.821655%, 67.686462%, 93.75%)" offset="0.867188"/><stop stop-opacity="1" stop-color="rgb(7.85675%, 67.909241%, 93.933105%)" offset="0.871094"/><stop stop-opacity="1" stop-color="rgb(7.891846%, 68.133545%, 94.117737%)" offset="0.875"/><stop stop-opacity="1" stop-color="rgb(7.926941%, 68.356323%, 94.300842%)" offset="0.878906"/><stop stop-opacity="1" stop-color="rgb(7.962036%, 68.580627%, 94.483948%)" offset="0.882812"/><stop stop-opacity="1" stop-color="rgb(7.997131%, 68.803406%, 94.667053%)" offset="0.886719"/><stop stop-opacity="1" stop-color="rgb(8.032227%, 69.02771%, 94.851685%)" offset="0.890625"/><stop stop-opacity="1" stop-color="rgb(8.067322%, 69.250488%, 95.03479%)" offset="0.894531"/><stop stop-opacity="1" stop-color="rgb(8.102417%, 69.474792%, 95.219421%)" offset="0.898438"/><stop stop-opacity="1" stop-color="rgb(8.137512%, 69.697571%, 95.402527%)" offset="0.902344"/><stop stop-opacity="1" stop-color="rgb(8.174133%, 69.921875%, 95.587158%)" offset="0.90625"/><stop stop-opacity="1" stop-color="rgb(8.209229%, 70.144653%, 95.770264%)" offset="0.910156"/><stop stop-opacity="1" stop-color="rgb(8.244324%, 70.368958%, 95.954895%)" offset="0.914062"/><stop stop-opacity="1" stop-color="rgb(8.279419%, 70.591736%, 96.138%)" offset="0.917969"/><stop stop-opacity="1" stop-color="rgb(8.314514%, 70.814514%, 96.321106%)" offset="0.921875"/><stop stop-opacity="1" stop-color="rgb(8.349609%, 71.037292%, 96.504211%)" offset="0.925781"/><stop stop-opacity="1" stop-color="rgb(8.384705%, 71.261597%, 96.688843%)" offset="0.929688"/><stop stop-opacity="1" stop-color="rgb(8.4198%, 71.484375%, 96.871948%)" offset="0.933594"/><stop stop-opacity="1" stop-color="rgb(8.454895%, 71.708679%, 97.05658%)" offset="0.9375"/><stop stop-opacity="1" stop-color="rgb(8.48999%, 71.931458%, 97.239685%)" offset="0.941406"/><stop stop-opacity="1" stop-color="rgb(8.525085%, 72.155762%, 97.424316%)" offset="0.945312"/><stop stop-opacity="1" stop-color="rgb(8.560181%, 72.37854%, 97.607422%)" offset="0.949219"/><stop stop-opacity="1" stop-color="rgb(8.595276%, 72.602844%, 97.790527%)" offset="0.953125"/><stop stop-opacity="1" stop-color="rgb(8.630371%, 72.825623%, 97.973633%)" offset="0.957031"/><stop stop-opacity="1" stop-color="rgb(8.666992%, 73.049927%, 98.158264%)" offset="0.960938"/><stop stop-opacity="1" stop-color="rgb(8.702087%, 73.272705%, 98.34137%)" offset="0.964844"/><stop stop-opacity="1" stop-color="rgb(8.737183%, 73.497009%, 98.526001%)" offset="0.96875"/><stop stop-opacity="1" stop-color="rgb(8.772278%, 73.719788%, 98.709106%)" offset="0.972656"/><stop stop-opacity="1" stop-color="rgb(8.807373%, 73.944092%, 98.893738%)" offset="0.976562"/><stop stop-opacity="1" stop-color="rgb(8.842468%, 74.16687%, 99.076843%)" offset="0.980469"/><stop stop-opacity="1" stop-color="rgb(8.877563%, 74.391174%, 99.261475%)" offset="0.984375"/><stop stop-opacity="1" stop-color="rgb(8.912659%, 74.613953%, 99.44458%)" offset="0.988281"/><stop stop-opacity="1" stop-color="rgb(8.947754%, 74.838257%, 99.627686%)" offset="0.992188"/><stop stop-opacity="1" stop-color="rgb(8.982849%, 75.061035%, 99.810791%)" offset="0.996094"/><stop stop-opacity="1" stop-color="rgb(9.017944%, 75.285339%, 99.995422%)" offset="1"/></linearGradient><clipPath id="3c6bdedf3c"><rect x="0" width="375" y="0" height="375"/></clipPath><clipPath id="86e33c51e3"><rect x="0" width="303" y="0" height="143"/></clipPath><clipPath id="9245cf4b06"><path d="M 77 137 L 115 137 L 115 174 L 77 174 Z M 77 137 " clip-rule="nonzero"/></clipPath><clipPath id="112f8c68b8"><path d="M 65.34375 60.132812 L 198.449219 64.410156 L 194.386719 190.925781 L 61.28125 186.648438 Z M 65.34375 60.132812 " clip-rule="nonzero"/></clipPath><clipPath id="db11ae2371"><path d="M 65.34375 60.132812 L 198.449219 64.410156 L 194.386719 190.925781 L 61.28125 186.648438 Z M 65.34375 60.132812 " clip-rule="nonzero"/></clipPath><clipPath id="47dcad47b1"><path d="M 63 64 L 198 64 L 198 189 L 63 189 Z M 63 64 " clip-rule="nonzero"/></clipPath><clipPath id="3934007588"><path d="M 65.34375 60.132812 L 198.449219 64.410156 L 194.386719 190.925781 L 61.28125 186.648438 Z M 65.34375 60.132812 " clip-rule="nonzero"/></clipPath><clipPath id="ee3734559a"><path d="M 65.34375 60.132812 L 198.449219 64.410156 L 194.386719 190.925781 L 61.28125 186.648438 Z M 65.34375 60.132812 " clip-rule="nonzero"/></clipPath><clipPath id="7bc1e85b1b"><path d="M 36 179 L 104 179 L 104 247 L 36 247 Z M 36 179 " clip-rule="nonzero"/></clipPath><clipPath id="db1e3acba0"><path d="M 58.167969 258.789062 L 19.105469 214.125 L 73.691406 166.382812 L 112.753906 211.042969 Z M 58.167969 258.789062 " clip-rule="nonzero"/></clipPath><clipPath id="c278b3f3c7"><path d="M 58.167969 258.789062 L 19.105469 214.125 L 73.691406 166.382812 L 112.753906 211.042969 Z M 58.167969 258.789062 " clip-rule="nonzero"/></clipPath><clipPath id="50af1ca425"><path d="M 32 172 L 100 172 L 100 241 L 32 241 Z M 32 172 " clip-rule="nonzero"/></clipPath><clipPath id="a2b7420a2e"><path d="M 54.636719 251.984375 L 15.574219 207.324219 L 70.164062 159.578125 L 109.226562 204.242188 Z M 54.636719 251.984375 " clip-rule="nonzero"/></clipPath><clipPath id="30593bbfa2"><path d="M 54.636719 251.984375 L 15.574219 207.324219 L 70.164062 159.578125 L 109.226562 204.242188 Z M 54.636719 251.984375 " clip-rule="nonzero"/></clipPath><clipPath id="d2242abfe0"><path d="M 28 165 L 96 165 L 96 234 L 28 234 Z M 28 165 " clip-rule="nonzero"/></clipPath><clipPath id="eba02d10f0"><path d="M 50.25 245.496094 L 11.1875 200.832031 L 65.777344 153.089844 L 104.839844 197.75 Z M 50.25 245.496094 " clip-rule="nonzero"/></clipPath><clipPath id="309b6183ce"><path d="M 50.25 245.496094 L 11.1875 200.832031 L 65.777344 153.089844 L 104.839844 197.75 Z M 50.25 245.496094 " clip-rule="nonzero"/></clipPath><clipPath id="906d1f05b4"><path d="M 24 159 L 92 159 L 92 228 L 24 228 Z M 24 159 " clip-rule="nonzero"/></clipPath><clipPath id="d8bd82181a"><path d="M 46.292969 239.195312 L 7.230469 194.535156 L 61.820312 146.789062 L 100.882812 191.453125 Z M 46.292969 239.195312 " clip-rule="nonzero"/></clipPath><clipPath id="8d169bf9ad"><path d="M 46.292969 239.195312 L 7.230469 194.535156 L 61.820312 146.789062 L 100.882812 191.453125 Z M 46.292969 239.195312 " clip-rule="nonzero"/></clipPath><clipPath id="4242745535"><rect x="0" width="375" y="0" height="375"/></clipPath></defs><g transform="matrix(1, 0, 0, 1, 0, 0)"><g clip-path="url(#4242745535)"><g clip-path="url(#841b8b99b6)"><g clip-path="url(#7ae188b03e)"><g transform="matrix(1, 0, 0, 1, 0, 0)"><g clip-path="url(#3c6bdedf3c)"><g clip-path="url(#5e47717634)"><g clip-path="url(#166ab09840)"><path fill="url(#d2b2a5830d)" d="M 0 0 L 0 374.730469 L 374.730469 374.730469 L 374.730469 0 Z M 0 0 " fill-rule="nonzero"/></g></g></g></g></g></g><g transform="matrix(1, 0, 0, 1, 49, 194)"><g clip-path="url(#86e33c51e3)"><g fill="#ffffff" fill-opacity="1"><g transform="translate(3.626492, 99.707529)"><g><path d="M 49.296875 -51.515625 C 54.066406 -51.515625 57.882812 -49.804688 60.75 -46.390625 C 63.613281 -42.972656 65.046875 -38.460938 65.046875 -32.859375 C 65.046875 -29.960938 64.691406 -27.128906 63.984375 -24.359375 C 61.921875 -16.046875 58.390625 -9.757812 53.390625 -5.5 C 48.398438 -1.25 42.65625 0.875 36.15625 0.875 C 32.476562 0.875 29.300781 0.242188 26.625 -1.015625 C 23.957031 -2.273438 21.816406 -4.0625 20.203125 -6.375 L 16.71875 -3.390625 C 15.363281 -2.222656 14.039062 -1.363281 12.75 -0.8125 C 11.46875 -0.269531 9.988281 0 8.3125 0 L 4.0625 0 C 2.445312 0 1.203125 -0.335938 0.328125 -1.015625 C -0.535156 -1.691406 -0.96875 -2.675781 -0.96875 -3.96875 C -0.96875 -4.539062 -0.867188 -5.21875 -0.671875 -6 L 15.46875 -58.484375 C 15.65625 -59.054688 15.75 -59.535156 15.75 -59.921875 C 15.75 -61.015625 15.070312 -62.046875 13.71875 -63.015625 C 13.082031 -63.597656 12.632812 -64.066406 12.375 -64.421875 C 12.113281 -64.773438 12.082031 -65.242188 12.28125 -65.828125 C 12.726562 -67.304688 14.769531 -68.609375 18.40625 -69.734375 C 22.050781 -70.859375 25.867188 -71.421875 29.859375 -71.421875 C 33.597656 -71.421875 36.351562 -70.695312 38.125 -69.25 C 39.894531 -67.800781 40.78125 -65.851562 40.78125 -63.40625 C 40.78125 -62.050781 40.554688 -60.695312 40.109375 -59.34375 L 36.046875 -46.203125 C 39.785156 -49.742188 44.203125 -51.515625 49.296875 -51.515625 Z M 38.375 -24.9375 C 39.664062 -29.320312 40.3125 -32.863281 40.3125 -35.5625 C 40.3125 -38.53125 39.441406 -40.015625 37.703125 -40.015625 C 36.148438 -40.015625 34.695312 -39.207031 33.34375 -37.59375 L 27.0625 -17.109375 L 26.484375 -15.265625 C 26.160156 -14.304688 26 -13.3125 26 -12.28125 C 26 -10.019531 27.0625 -8.890625 29.1875 -8.890625 C 30.738281 -8.890625 32.222656 -10.015625 33.640625 -12.265625 C 35.054688 -14.523438 36.632812 -18.75 38.375 -24.9375 Z M 38.375 -24.9375 "/></g></g></g><g fill="#ffffff" fill-opacity="1"><g transform="translate(69.043312, 99.707529)"><g><path d="M 37.40625 -51.125 C 46.164062 -51.125 52.625 -49.351562 56.78125 -45.8125 C 60.9375 -42.269531 63.015625 -37.628906 63.015625 -31.890625 C 63.015625 -29.960938 62.757812 -27.804688 62.25 -25.421875 C 61.019531 -20.140625 58.726562 -15.515625 55.375 -11.546875 C 52.03125 -7.585938 47.925781 -4.523438 43.0625 -2.359375 C 38.195312 -0.203125 32.925781 0.875 27.25 0.875 C 18.300781 0.875 11.679688 -0.910156 7.390625 -4.484375 C 3.109375 -8.066406 0.96875 -12.820312 0.96875 -18.75 C 0.96875 -20.75 1.222656 -22.972656 1.734375 -25.421875 C 2.960938 -30.441406 5.300781 -34.898438 8.75 -38.796875 C 12.195312 -42.703125 16.414062 -45.734375 21.40625 -47.890625 C 26.40625 -50.046875 31.738281 -51.125 37.40625 -51.125 Z M 37.109375 -42.53125 C 35.765625 -42.53125 34.332031 -41.320312 32.8125 -38.90625 C 31.300781 -36.488281 29.515625 -31.929688 27.453125 -25.234375 C 25.390625 -18.523438 24.359375 -13.816406 24.359375 -11.109375 C 24.359375 -9.691406 24.582031 -8.742188 25.03125 -8.265625 C 25.476562 -7.785156 26.09375 -7.546875 26.875 -7.546875 C 28.226562 -7.410156 29.628906 -8.566406 31.078125 -11.015625 C 32.523438 -13.460938 34.34375 -18.234375 36.53125 -25.328125 C 38.53125 -31.578125 39.53125 -36.117188 39.53125 -38.953125 C 39.53125 -40.304688 39.320312 -41.238281 38.90625 -41.75 C 38.488281 -42.269531 37.890625 -42.53125 37.109375 -42.53125 Z M 37.109375 -42.53125 "/></g></g></g><g fill="#ffffff" fill-opacity="1"><g transform="translate(132.430946, 99.707529)"><g><path d="M 37.40625 -51.125 C 46.164062 -51.125 52.625 -49.351562 56.78125 -45.8125 C 60.9375 -42.269531 63.015625 -37.628906 63.015625 -31.890625 C 63.015625 -29.960938 62.757812 -27.804688 62.25 -25.421875 C 61.019531 -20.140625 58.726562 -15.515625 55.375 -11.546875 C 52.03125 -7.585938 47.925781 -4.523438 43.0625 -2.359375 C 38.195312 -0.203125 32.925781 0.875 27.25 0.875 C 18.300781 0.875 11.679688 -0.910156 7.390625 -4.484375 C 3.109375 -8.066406 0.96875 -12.820312 0.96875 -18.75 C 0.96875 -20.75 1.222656 -22.972656 1.734375 -25.421875 C 2.960938 -30.441406 5.300781 -34.898438 8.75 -38.796875 C 12.195312 -42.703125 16.414062 -45.734375 21.40625 -47.890625 C 26.40625 -50.046875 31.738281 -51.125 37.40625 -51.125 Z M 37.109375 -42.53125 C 35.765625 -42.53125 34.332031 -41.320312 32.8125 -38.90625 C 31.300781 -36.488281 29.515625 -31.929688 27.453125 -25.234375 C 25.390625 -18.523438 24.359375 -13.816406 24.359375 -11.109375 C 24.359375 -9.691406 24.582031 -8.742188 25.03125 -8.265625 C 25.476562 -7.785156 26.09375 -7.546875 26.875 -7.546875 C 28.226562 -7.410156 29.628906 -8.566406 31.078125 -11.015625 C 32.523438 -13.460938 34.34375 -18.234375 36.53125 -25.328125 C 38.53125 -31.578125 39.53125 -36.117188 39.53125 -38.953125 C 39.53125 -40.304688 39.320312 -41.238281 38.90625 -41.75 C 38.488281 -42.269531 37.890625 -42.53125 37.109375 -42.53125 Z M 37.109375 -42.53125 "/></g></g></g><g fill="#ffffff" fill-opacity="1"><g transform="translate(195.818579, 99.707529)"><g><path d="M 31.796875 -52 C 37.148438 -52 41.773438 -51.515625 45.671875 -50.546875 C 49.566406 -49.578125 52.5625 -48.222656 54.65625 -46.484375 C 56.75 -44.742188 57.796875 -42.78125 57.796875 -40.59375 C 57.796875 -38.34375 56.910156 -36.503906 55.140625 -35.078125 C 53.367188 -33.660156 50.90625 -32.953125 47.75 -32.953125 C 44.53125 -32.953125 41.804688 -33.757812 39.578125 -35.375 C 37.359375 -36.988281 36.25 -39.019531 36.25 -41.46875 C 36.25 -42.300781 36.375 -43.101562 36.625 -43.875 C 35.46875 -44.195312 34.441406 -44.359375 33.546875 -44.359375 C 31.929688 -44.359375 30.59375 -43.972656 29.53125 -43.203125 C 28.46875 -42.429688 27.96875 -41.335938 28.03125 -39.921875 C 28.03125 -38.242188 28.867188 -36.820312 30.546875 -35.65625 C 32.222656 -34.5 34.925781 -33.050781 38.65625 -31.3125 C 41.882812 -29.894531 44.546875 -28.585938 46.640625 -27.390625 C 48.734375 -26.203125 50.503906 -24.707031 51.953125 -22.90625 C 53.398438 -21.101562 54.125 -18.976562 54.125 -16.53125 C 54.125 -16.007812 53.992188 -15.039062 53.734375 -13.625 C 52.703125 -9.3125 49.832031 -5.894531 45.125 -3.375 C 40.425781 -0.863281 34.242188 0.390625 26.578125 0.390625 C 17.941406 0.390625 11.09375 -0.769531 6.03125 -3.09375 C 0.976562 -5.414062 -1.546875 -8.601562 -1.546875 -12.65625 C -1.546875 -15.425781 -0.707031 -17.519531 0.96875 -18.9375 C 2.644531 -20.363281 4.867188 -21.078125 7.640625 -21.078125 C 10.859375 -21.078125 13.609375 -20.078125 15.890625 -18.078125 C 18.179688 -16.078125 19.328125 -13.53125 19.328125 -10.4375 C 19.328125 -9.601562 19.234375 -8.734375 19.046875 -7.828125 C 20.585938 -7.441406 22.066406 -7.25 23.484375 -7.25 C 25.160156 -7.25 26.546875 -7.695312 27.640625 -8.59375 C 28.734375 -9.5 29.28125 -10.757812 29.28125 -12.375 C 29.21875 -13.851562 28.476562 -15.125 27.0625 -16.1875 C 25.644531 -17.25 23.390625 -18.523438 20.296875 -20.015625 C 17.398438 -21.359375 15.015625 -22.625 13.140625 -23.8125 C 11.273438 -25.007812 9.679688 -26.507812 8.359375 -28.3125 C 7.035156 -30.125 6.375 -32.253906 6.375 -34.703125 C 6.375 -39.984375 8.582031 -44.1875 13 -47.3125 C 17.414062 -50.4375 23.679688 -52 31.796875 -52 Z M 31.796875 -52 "/></g></g></g><g fill="#ffffff" fill-opacity="1"><g transform="translate(253.118679, 99.707529)"><g><path d="M 43.203125 -49.875 C 44.429688 -49.875 45.382812 -49.613281 46.0625 -49.09375 C 46.738281 -48.582031 47.078125 -47.875 47.078125 -46.96875 C 47.078125 -46.71875 47.007812 -46.269531 46.875 -45.625 C 46.039062 -42.789062 44.109375 -41.375 41.078125 -41.375 L 35.46875 -41.375 L 28.21875 -17.5 C 27.894531 -16.53125 27.734375 -15.53125 27.734375 -14.5 C 27.734375 -13.34375 28.054688 -12.535156 28.703125 -12.078125 C 29.347656 -11.628906 30.25 -11.40625 31.40625 -11.40625 C 32.4375 -11.40625 33.726562 -11.535156 35.28125 -11.796875 C 36.050781 -11.984375 36.726562 -12.078125 37.3125 -12.078125 C 37.757812 -12.078125 38.09375 -11.929688 38.3125 -11.640625 C 38.539062 -11.359375 38.65625 -10.988281 38.65625 -10.53125 C 38.726562 -9.25 37.78125 -7.6875 35.8125 -5.84375 C 33.84375 -4.007812 31.179688 -2.429688 27.828125 -1.109375 C 24.484375 0.210938 20.78125 0.875 16.71875 0.875 C 12.34375 0.875 8.832031 -0.125 6.1875 -2.125 C 3.539062 -4.125 2.21875 -6.863281 2.21875 -10.34375 C 2.21875 -11.957031 2.476562 -13.503906 3 -14.984375 L 9.1875 -34.125 C 9.507812 -35.21875 9.671875 -36.085938 9.671875 -36.734375 C 9.671875 -38.015625 9.363281 -39.109375 8.75 -40.015625 C 8.132812 -40.921875 7.28125 -41.851562 6.1875 -42.8125 C 5.21875 -43.71875 4.539062 -44.476562 4.15625 -45.09375 C 3.769531 -45.707031 3.671875 -46.429688 3.859375 -47.265625 C 4.117188 -48.097656 4.664062 -48.738281 5.5 -49.1875 C 6.34375 -49.644531 7.664062 -49.875 9.46875 -49.875 L 14.890625 -49.875 L 20.96875 -55.96875 C 23.101562 -58.09375 25.054688 -59.570312 26.828125 -60.40625 C 28.597656 -61.25 30.898438 -61.671875 33.734375 -61.671875 C 37.796875 -61.671875 39.828125 -60.125 39.828125 -57.03125 C 39.828125 -56.0625 39.695312 -55.160156 39.4375 -54.328125 L 38.078125 -49.875 Z M 43.203125 -49.875 "/></g></g></g></g></g><g fill="#ffffff" fill-opacity="1"><g transform="translate(134.883547, 227.947847)"><g><path d="M 35.765625 -52.984375 C 43.441406 -52.984375 49.582031 -51.5625 54.1875 -48.71875 C 58.800781 -45.882812 61.109375 -41.566406 61.109375 -35.765625 C 61.109375 -33.554688 60.707031 -31.050781 59.90625 -28.25 L 55.796875 -14.421875 C 55.734375 -14.160156 55.703125 -13.828125 55.703125 -13.421875 C 55.703125 -12.347656 56.132812 -11.8125 57 -11.8125 C 57.800781 -11.8125 58.484375 -12.160156 59.046875 -12.859375 C 59.617188 -13.566406 60.003906 -13.921875 60.203125 -13.921875 C 60.535156 -13.921875 60.816406 -13.6875 61.046875 -13.21875 C 61.285156 -12.75 61.40625 -12.21875 61.40625 -11.625 C 61.46875 -9.820312 60.78125 -7.984375 59.34375 -6.109375 C 57.914062 -4.242188 56 -2.707031 53.59375 -1.5 C 51.1875 -0.300781 48.546875 0.296875 45.671875 0.296875 C 42.203125 0.296875 39.234375 -0.332031 36.765625 -1.59375 C 34.296875 -2.863281 32.59375 -4.738281 31.65625 -7.21875 C 29.65625 -4.8125 27.285156 -2.957031 24.546875 -1.65625 C 21.804688 -0.351562 18.867188 0.296875 15.734375 0.296875 C 12.191406 0.296875 9.21875 -0.382812 6.8125 -1.75 C 4.40625 -3.125 2.617188 -4.894531 1.453125 -7.0625 C 0.285156 -9.226562 -0.296875 -11.515625 -0.296875 -13.921875 C -0.296875 -14.992188 -0.195312 -16.03125 0 -17.03125 C 1.070312 -21.632812 3.394531 -25.101562 6.96875 -27.4375 C 10.539062 -29.78125 14.796875 -30.953125 19.734375 -30.953125 C 25.273438 -30.953125 30.71875 -30.082031 36.0625 -28.34375 L 38.5625 -34.953125 C 39.4375 -37.765625 39.875 -39.9375 39.875 -41.46875 C 39.800781 -43.070312 39.265625 -44.273438 38.265625 -45.078125 C 37.265625 -45.878906 35.726562 -46.28125 33.65625 -46.28125 C 34.0625 -45.207031 34.265625 -44.101562 34.265625 -42.96875 C 34.265625 -40.5 33.328125 -38.363281 31.453125 -36.5625 C 29.585938 -34.757812 26.914062 -33.859375 23.4375 -33.859375 C 20.164062 -33.859375 17.609375 -34.578125 15.765625 -36.015625 C 13.929688 -37.453125 13.015625 -39.238281 13.015625 -41.375 C 13.015625 -44.707031 14.882812 -47.472656 18.625 -49.671875 C 22.363281 -51.878906 28.078125 -52.984375 35.765625 -52.984375 Z M 30.15625 -22.640625 C 28.28125 -22.640625 26.757812 -21.921875 25.59375 -20.484375 C 24.425781 -19.046875 23.84375 -17.492188 23.84375 -15.828125 C 23.84375 -14.753906 24.09375 -13.882812 24.59375 -13.21875 C 25.09375 -12.550781 25.8125 -12.21875 26.75 -12.21875 C 27.613281 -12.21875 28.5625 -12.566406 29.59375 -13.265625 C 30.632812 -13.972656 31.390625 -15.023438 31.859375 -16.421875 L 33.953125 -22.34375 C 32.816406 -22.539062 31.550781 -22.640625 30.15625 -22.640625 Z M 30.15625 -22.640625 "/></g></g></g><g fill="#ffffff" fill-opacity="1"><g transform="translate(200.394568, 227.947847)"><g><path d="M 26.34375 -52.984375 C 30.21875 -52.984375 33.054688 -52.25 34.859375 -50.78125 C 36.660156 -49.3125 37.5625 -47.3125 37.5625 -44.78125 C 37.5625 -43.238281 37.328125 -41.769531 36.859375 -40.375 L 27.640625 -10.421875 C 27.441406 -9.617188 27.34375 -8.914062 27.34375 -8.3125 C 27.34375 -7.445312 27.507812 -6.765625 27.84375 -6.265625 C 28.175781 -5.765625 28.644531 -5.28125 29.25 -4.8125 C 29.71875 -4.34375 30.050781 -3.957031 30.25 -3.65625 C 30.445312 -3.351562 30.476562 -2.96875 30.34375 -2.5 C 30.007812 -1.632812 29.34375 -1 28.34375 -0.59375 C 27.34375 -0.195312 25.804688 0 23.734375 0 L 0.890625 0 C -0.835938 0 -2.101562 -0.28125 -2.90625 -0.84375 C -3.707031 -1.414062 -3.972656 -2.171875 -3.703125 -3.109375 C -3.441406 -3.910156 -2.742188 -4.609375 -1.609375 -5.203125 C -0.609375 -5.742188 0.222656 -6.378906 0.890625 -7.109375 C 1.566406 -7.847656 2.132812 -9.019531 2.59375 -10.625 L 11.3125 -39.5625 C 11.507812 -40.164062 11.609375 -40.671875 11.609375 -41.078125 C 11.609375 -41.804688 11.441406 -42.382812 11.109375 -42.8125 C 10.773438 -43.25 10.273438 -43.703125 9.609375 -44.171875 C 8.941406 -44.710938 8.472656 -45.179688 8.203125 -45.578125 C 7.941406 -45.972656 7.910156 -46.507812 8.109375 -47.1875 C 8.515625 -48.71875 10.617188 -50.066406 14.421875 -51.234375 C 18.222656 -52.398438 22.195312 -52.984375 26.34375 -52.984375 Z M 33.046875 -75.125 C 35.660156 -75.125 37.832031 -74.269531 39.5625 -72.5625 C 41.300781 -70.863281 42.171875 -68.78125 42.171875 -66.3125 C 42.171875 -64.570312 41.71875 -62.867188 40.8125 -61.203125 C 39.914062 -59.535156 38.648438 -58.179688 37.015625 -57.140625 C 35.378906 -56.109375 33.554688 -55.59375 31.546875 -55.59375 C 29.015625 -55.59375 26.894531 -56.441406 25.1875 -58.140625 C 23.488281 -59.847656 22.601562 -61.972656 22.53125 -64.515625 C 22.53125 -66.179688 22.960938 -67.832031 23.828125 -69.46875 C 24.703125 -71.101562 25.941406 -72.453125 27.546875 -73.515625 C 29.148438 -74.585938 30.984375 -75.125 33.046875 -75.125 Z M 33.046875 -75.125 "/></g></g></g><g fill="#ffffff" fill-opacity="1"><g transform="translate(237.056703, 227.947847)"><g><path d="M 49.1875 -52.984375 C 52.925781 -52.984375 55.910156 -51.847656 58.140625 -49.578125 C 60.378906 -47.304688 61.5 -44.503906 61.5 -41.171875 C 61.5 -39.898438 61.367188 -38.734375 61.109375 -37.671875 C 60.441406 -34.929688 59.171875 -32.828125 57.296875 -31.359375 C 55.429688 -29.890625 53.195312 -29.15625 50.59375 -29.15625 C 48.050781 -29.15625 46.128906 -29.753906 44.828125 -30.953125 C 43.523438 -32.148438 42.375 -33.753906 41.375 -35.765625 C 40.832031 -36.898438 40.328125 -37.734375 39.859375 -38.265625 C 39.398438 -38.796875 38.867188 -39.0625 38.265625 -39.0625 C 37.597656 -39.0625 37.015625 -38.796875 36.515625 -38.265625 C 36.015625 -37.734375 35.5625 -36.796875 35.15625 -35.453125 L 27.453125 -10.421875 C 27.316406 -10.085938 27.25 -9.585938 27.25 -8.921875 C 27.25 -8.046875 27.5 -7.320312 28 -6.75 C 28.5 -6.1875 29.179688 -5.640625 30.046875 -5.109375 C 30.847656 -4.578125 31.382812 -4.144531 31.65625 -3.8125 C 31.925781 -3.476562 32.023438 -3.039062 31.953125 -2.5 C 31.816406 -1.632812 31.332031 -1 30.5 -0.59375 C 29.664062 -0.195312 28.25 0 26.25 0 L 0.59375 0 C -1.132812 0 -2.382812 -0.28125 -3.15625 -0.84375 C -3.925781 -1.414062 -4.207031 -2.171875 -4 -3.109375 C -3.738281 -3.910156 -3.039062 -4.609375 -1.90625 -5.203125 C -0.90625 -5.742188 -0.0703125 -6.378906 0.59375 -7.109375 C 1.269531 -7.847656 1.835938 -9.019531 2.296875 -10.625 L 11.21875 -39.5625 C 11.351562 -39.894531 11.421875 -40.363281 11.421875 -40.96875 C 11.421875 -41.707031 11.269531 -42.273438 10.96875 -42.671875 C 10.664062 -43.078125 10.179688 -43.578125 9.515625 -44.171875 C 8.847656 -44.710938 8.378906 -45.179688 8.109375 -45.578125 C 7.847656 -45.972656 7.816406 -46.507812 8.015625 -47.1875 C 8.410156 -48.71875 10.507812 -50.066406 14.3125 -51.234375 C 18.125 -52.398438 22.101562 -52.984375 26.25 -52.984375 C 28.988281 -52.984375 31.257812 -52.363281 33.0625 -51.125 C 34.863281 -49.894531 36.03125 -48.144531 36.5625 -45.875 C 39.769531 -50.613281 43.976562 -52.984375 49.1875 -52.984375 Z M 49.1875 -52.984375 "/></g></g></g><g clip-path="url(#9245cf4b06)"><g clip-path="url(#112f8c68b8)"><g clip-path="url(#db11ae2371)"><path fill="#ffffff" d="M 77.777344 144.023438 L 106.867188 173.582031 L 114.484375 169.398438 L 82.648438 137.050781 Z M 77.777344 144.023438 " fill-opacity="1" fill-rule="nonzero"/></g></g></g><g clip-path="url(#47dcad47b1)"><g clip-path="url(#3934007588)"><g clip-path="url(#ee3734559a)"><path fill="#ffffff" d="M 152.261719 105.257812 C 148.453125 101.386719 148.648438 95.3125 152.699219 91.695312 C 156.75 88.074219 163.121094 88.28125 166.933594 92.152344 C 170.742188 96.023438 170.550781 102.09375 166.496094 105.714844 C 162.445312 109.332031 156.070312 109.128906 152.261719 105.257812 M 149.332031 149.722656 C 152.71875 147.214844 156.015625 144.53125 159.1875 141.699219 C 171.363281 130.820312 181.300781 118.101562 187.914062 104.925781 C 194.332031 92.136719 197.488281 79.242188 197.035156 67.636719 L 194.546875 65.105469 C 182.421875 63.933594 168.714844 66.101562 154.902344 71.382812 C 140.675781 76.828125 126.710938 85.453125 114.535156 96.332031 C 111.363281 99.164062 108.347656 102.125 105.496094 105.1875 C 94.699219 105.148438 83.882812 108.882812 75.398438 116.460938 C 69.292969 121.914062 65.195312 128.648438 63.132812 135.820312 C 70.464844 131.011719 79.152344 128.960938 87.640625 129.621094 C 87.007812 130.777344 86.398438 131.9375 85.8125 133.105469 L 118.824219 166.644531 C 120.082031 166.164062 121.335938 165.65625 122.585938 165.125 C 122.734375 173.238281 120.023438 181.371094 114.515625 188.03125 C 122.164062 186.53125 129.480469 183.070312 135.589844 177.613281 C 144.070312 170.035156 148.675781 159.988281 149.332031 149.722656 " fill-opacity="1" fill-rule="nonzero"/></g></g></g><g clip-path="url(#7bc1e85b1b)"><g clip-path="url(#db1e3acba0)"><g clip-path="url(#c278b3f3c7)"><path fill="#ffd600" d="M 46.855469 245.703125 C 46.828125 245.632812 38.285156 222.347656 47.003906 204.757812 C 44.445312 205.179688 40.984375 205.953125 38.847656 207.265625 C 38.050781 207.757812 37.011719 207.507812 36.519531 206.71875 C 36.199219 206.195312 36.195312 205.566406 36.457031 205.058594 C 37.097656 203.722656 55.21875 166.492188 87.800781 183.421875 C 88.628906 183.851562 88.953125 184.871094 88.519531 185.699219 C 88.332031 186.0625 88.03125 186.324219 87.6875 186.472656 C 77.558594 190.8125 73.011719 196.976562 72.152344 202.070312 C 71.71875 204.632812 72.242188 206.871094 73.460938 208.351562 C 74.613281 209.753906 76.445312 210.488281 78.703125 210.140625 C 83.09375 209.476562 88.914062 205.058594 94.839844 194.492188 C 95.296875 193.683594 96.328125 193.394531 97.140625 193.851562 C 97.363281 193.976562 97.546875 194.144531 97.6875 194.339844 C 101.089844 198.652344 102.820312 203.105469 103.214844 207.402344 C 103.574219 211.316406 102.820312 215.089844 101.203125 218.5 C 99.601562 221.875 97.160156 224.878906 94.121094 227.289062 C 89.9375 230.609375 84.621094 232.828125 78.828125 233.363281 C 77.175781 233.511719 75.558594 233.550781 73.949219 233.589844 C 66.679688 233.761719 59.453125 233.925781 49.765625 246.179688 C 49.1875 246.910156 48.125 247.035156 47.394531 246.453125 C 47.140625 246.253906 46.957031 245.988281 46.855469 245.703125 Z M 46.855469 245.703125 " fill-opacity="1" fill-rule="evenodd"/></g></g></g><g clip-path="url(#50af1ca425)"><g clip-path="url(#a2b7420a2e)"><g clip-path="url(#30593bbfa2)"><path fill="#fb2a5e" d="M 43.328125 238.902344 C 43.300781 238.832031 34.757812 215.546875 43.476562 197.957031 C 40.917969 198.378906 37.457031 199.148438 35.316406 200.460938 C 34.523438 200.953125 33.484375 200.707031 32.992188 199.914062 C 32.671875 199.390625 32.667969 198.765625 32.929688 198.257812 C 33.566406 196.921875 51.691406 159.691406 84.273438 176.621094 C 85.101562 177.050781 85.421875 178.066406 84.992188 178.898438 C 84.804688 179.261719 84.503906 179.523438 84.160156 179.671875 C 74.03125 184.007812 69.484375 190.175781 68.625 195.269531 C 68.191406 197.832031 68.714844 200.070312 69.929688 201.550781 C 71.082031 202.949219 72.914062 203.6875 75.175781 203.339844 C 79.5625 202.675781 85.382812 198.253906 91.308594 187.691406 C 91.769531 186.882812 92.796875 186.59375 93.609375 187.046875 C 93.832031 187.175781 94.015625 187.34375 94.15625 187.539062 C 97.5625 191.851562 99.292969 196.304688 99.6875 200.601562 C 100.046875 204.511719 99.292969 208.289062 97.675781 211.699219 C 96.070312 215.074219 93.628906 218.078125 90.589844 220.488281 C 86.410156 223.808594 81.089844 226.027344 75.296875 226.558594 C 73.648438 226.710938 72.03125 226.746094 70.421875 226.785156 C 63.152344 226.957031 55.925781 227.125 46.238281 239.378906 C 45.660156 240.109375 44.597656 240.234375 43.863281 239.652344 C 43.613281 239.449219 43.429688 239.1875 43.328125 238.902344 Z M 43.328125 238.902344 " fill-opacity="1" fill-rule="evenodd"/></g></g></g><g clip-path="url(#d2242abfe0)"><g clip-path="url(#eba02d10f0)"><g clip-path="url(#309b6183ce)"><path fill="#17c0ff" d="M 38.9375 232.414062 C 38.910156 232.339844 30.371094 209.054688 39.089844 191.464844 C 36.53125 191.886719 33.066406 192.660156 30.929688 193.972656 C 30.132812 194.464844 29.09375 194.214844 28.605469 193.425781 C 28.28125 192.902344 28.277344 192.273438 28.539062 191.765625 C 29.179688 190.433594 47.300781 153.199219 79.886719 170.128906 C 80.710938 170.558594 81.035156 171.578125 80.605469 172.40625 C 80.417969 172.769531 80.117188 173.035156 79.773438 173.179688 C 69.644531 177.519531 65.09375 183.683594 64.234375 188.777344 C 63.800781 191.339844 64.324219 193.582031 65.542969 195.058594 C 66.695312 196.460938 68.527344 197.195312 70.785156 196.847656 C 75.175781 196.183594 80.996094 191.765625 86.921875 181.203125 C 87.378906 180.390625 88.410156 180.101562 89.222656 180.558594 C 89.445312 180.683594 89.628906 180.851562 89.769531 181.046875 C 93.175781 185.359375 94.902344 189.8125 95.296875 194.109375 C 95.660156 198.023438 94.90625 201.796875 93.285156 205.210938 C 91.683594 208.582031 89.242188 211.585938 86.203125 213.996094 C 82.019531 217.316406 76.703125 219.539062 70.910156 220.070312 C 69.257812 220.222656 67.644531 220.257812 66.03125 220.296875 C 58.761719 220.46875 51.535156 220.632812 41.847656 232.886719 C 41.273438 233.617188 40.210938 233.742188 39.476562 233.160156 C 39.222656 232.960938 39.042969 232.695312 38.9375 232.414062 Z M 38.9375 232.414062 " fill-opacity="1" fill-rule="evenodd"/></g></g></g><g clip-path="url(#906d1f05b4)"><g clip-path="url(#d8bd82181a)"><g clip-path="url(#8d169bf9ad)"><path fill="#ffffff" d="M 34.984375 226.113281 C 34.957031 226.042969 26.414062 202.757812 35.132812 185.167969 C 32.574219 185.589844 29.113281 186.359375 26.972656 187.671875 C 26.179688 188.164062 25.140625 187.917969 24.648438 187.125 C 24.324219 186.601562 24.324219 185.976562 24.585938 185.46875 C 25.222656 184.132812 43.347656 146.902344 75.929688 163.832031 C 76.753906 164.261719 77.078125 165.277344 76.648438 166.109375 C 76.460938 166.472656 76.160156 166.734375 75.816406 166.882812 C 65.6875 171.21875 61.140625 177.386719 60.28125 182.480469 C 59.847656 185.042969 60.371094 187.28125 61.585938 188.761719 C 62.738281 190.160156 64.570312 190.898438 66.832031 190.550781 C 71.21875 189.886719 77.039062 185.464844 82.964844 174.902344 C 83.425781 174.09375 84.453125 173.804688 85.265625 174.257812 C 85.488281 174.386719 85.671875 174.554688 85.8125 174.75 C 89.21875 179.0625 90.949219 183.515625 91.34375 187.8125 C 91.703125 191.722656 90.949219 195.5 89.328125 198.910156 C 87.726562 202.285156 85.285156 205.289062 82.246094 207.699219 C 78.066406 211.019531 72.746094 213.238281 66.953125 213.769531 C 65.304688 213.921875 63.6875 213.957031 62.078125 213.996094 C 54.808594 214.167969 47.582031 214.335938 37.894531 226.589844 C 37.316406 227.320312 36.253906 227.445312 35.519531 226.863281 C 35.269531 226.660156 35.085938 226.398438 34.984375 226.113281 Z M 34.984375 226.113281 " fill-opacity="1" fill-rule="evenodd"/></g></g></g></g></g></svg>