<svg width="231" height="243" viewBox="0 0 231 243" fill="none" xmlns="http://www.w3.org/2000/svg">
<path d="M71 107.08L109.786 146.491L119.943 140.913L77.4948 97.7827L71 107.08Z" fill="white"/>
<path d="M170.486 53.9493C165.408 48.7878 165.669 40.6889 171.07 35.866C176.471 31.0378 184.966 31.3139 190.049 36.4753C195.127 41.6368 194.872 49.7305 189.466 54.5587C184.065 59.3816 175.565 59.1108 170.486 53.9493ZM166.58 113.236C171.096 109.892 175.492 106.314 179.721 102.538C195.955 88.0326 209.205 71.0743 218.023 53.5066C226.58 36.4545 230.789 19.2618 230.184 3.78783L226.867 0.41283C210.7 -1.14967 192.424 1.74096 174.007 8.78262C155.039 16.043 136.419 27.543 120.184 42.0482C115.955 45.8243 111.934 49.7722 108.132 53.8555C93.7365 53.8035 79.3146 58.7826 68.0021 68.8868C59.8615 76.1576 54.3979 85.1368 51.6479 94.6993C61.424 88.2878 73.0073 85.5535 84.325 86.4337C83.4813 87.9753 82.6688 89.5222 81.8875 91.0795L125.903 135.798C127.58 135.158 129.252 134.481 130.919 133.772C131.117 144.59 127.502 155.434 120.158 164.314C130.356 162.314 140.111 157.699 148.257 150.423C159.565 140.319 165.705 126.923 166.58 113.236Z" fill="white"/>
<path fill-rule="evenodd" clip-rule="evenodd" d="M29.9448 241.21C29.9084 241.116 18.5178 210.069 30.1428 186.616C26.7313 187.179 22.1167 188.21 19.2678 189.96C18.2053 190.616 16.8198 190.283 16.1636 189.231C15.7365 188.533 15.7313 187.694 16.0803 187.017C16.9344 185.236 41.0959 135.595 84.5386 158.168C85.6428 158.741 86.075 160.1 85.4969 161.205C85.2469 161.689 84.8459 162.038 84.3875 162.236C70.8823 168.022 64.8198 176.241 63.674 183.033C63.0959 186.449 63.7938 189.434 65.4188 191.408C66.9553 193.277 69.398 194.257 72.4084 193.793C78.2625 192.908 86.023 187.017 93.924 172.929C94.5334 171.85 95.9084 171.465 96.9917 172.074C97.2886 172.241 97.5334 172.465 97.7209 172.725C102.257 178.475 104.565 184.413 105.091 190.142C105.57 195.361 104.565 200.392 102.408 204.939C100.273 209.439 97.0178 213.444 92.9657 216.658C87.3875 221.085 80.299 224.043 72.575 224.757C70.3719 224.955 68.2157 225.007 66.0698 225.059C56.3771 225.288 46.7417 225.507 33.825 241.845C33.0542 242.819 31.6375 242.986 30.6636 242.21C30.325 241.944 30.0803 241.59 29.9448 241.21Z" fill="#FFD600"/>
<path fill-rule="evenodd" clip-rule="evenodd" d="M25.2417 232.142C25.2053 232.048 13.8146 201.001 25.4396 177.548C22.0282 178.111 17.4136 179.137 14.5594 180.887C13.5021 181.543 12.1167 181.215 11.4605 180.158C11.0334 179.46 11.0282 178.626 11.3771 177.949C12.2261 176.168 36.3928 126.527 79.8355 149.1C80.9396 149.673 81.3667 151.027 80.7938 152.137C80.5438 152.621 80.1428 152.97 79.6844 153.168C66.1792 158.949 60.1167 167.173 58.9709 173.965C58.3928 177.382 59.0907 180.366 60.7105 182.34C62.2469 184.205 64.6896 185.189 67.7053 184.725C73.5542 183.84 81.3146 177.944 89.2157 163.861C89.8303 162.783 91.2001 162.397 92.2834 163.001C92.5803 163.173 92.8251 163.397 93.0126 163.658C97.5542 169.408 99.8615 175.345 100.388 181.074C100.867 186.288 99.8615 191.324 97.7053 195.871C95.5646 200.371 92.3094 204.376 88.2573 207.59C82.6844 212.017 75.5907 214.975 67.8667 215.684C65.6688 215.887 63.5125 215.934 61.3667 215.986C51.674 216.215 42.0386 216.439 29.1219 232.777C28.3511 233.751 26.9344 233.918 25.9553 233.142C25.6219 232.871 25.3771 232.522 25.2417 232.142Z" fill="#FB2A5E"/>
<path fill-rule="evenodd" clip-rule="evenodd" d="M19.3875 223.491C19.3511 223.392 7.96566 192.345 19.5907 168.892C16.1792 169.455 11.5594 170.486 8.71045 172.236C7.64795 172.892 6.26253 172.559 5.61149 171.507C5.1792 170.809 5.17399 169.97 5.52295 169.293C6.37712 167.517 30.5386 117.871 73.9865 140.444C75.0855 141.017 75.5177 142.376 74.9448 143.481C74.6948 143.965 74.2938 144.319 73.8355 144.512C60.3302 150.298 54.2625 158.517 53.1167 165.309C52.5386 168.725 53.2365 171.715 54.8615 173.684C56.3979 175.554 58.8407 176.533 61.8511 176.069C67.7052 175.184 75.4657 169.293 83.3667 155.21C83.9761 154.126 85.3511 153.741 86.4344 154.35C86.7313 154.517 86.9761 154.741 87.1636 155.001C91.7052 160.751 94.0073 166.689 94.5334 172.418C95.0177 177.637 94.0125 182.668 91.8511 187.22C89.7157 191.715 86.4605 195.72 82.4084 198.934C76.8302 203.361 69.7417 206.324 62.0177 207.033C59.8146 207.236 57.6636 207.283 55.5125 207.335C45.8198 207.564 36.1844 207.783 23.2677 224.121C22.5021 225.095 21.0854 225.262 20.1063 224.486C19.7677 224.22 19.5282 223.866 19.3875 223.491Z" fill="#17C0FF"/>
<path fill-rule="evenodd" clip-rule="evenodd" d="M14.1167 215.09C14.0803 214.996 2.68964 183.949 14.3146 160.496C10.9032 161.059 6.2886 162.085 3.43443 163.835C2.37714 164.491 0.99172 164.163 0.335471 163.106C-0.0968214 162.408 -0.0968214 161.574 0.252137 160.897C1.10109 159.116 25.2678 109.475 68.7105 132.048C69.8094 132.621 70.2417 133.975 69.6688 135.085C69.4188 135.569 69.0178 135.918 68.5594 136.116C55.0542 141.897 48.9917 150.121 47.8459 156.913C47.2678 160.33 47.9657 163.314 49.5855 165.288C51.1219 167.152 53.5646 168.137 56.5803 167.673C62.4292 166.788 70.1896 160.892 78.0907 146.809C78.7053 145.731 80.0751 145.345 81.1584 145.949C81.4553 146.121 81.7001 146.345 81.8876 146.606C86.4292 152.356 88.7365 158.293 89.2626 164.022C89.7417 169.236 88.7365 174.272 86.5751 178.819C84.4396 183.319 81.1844 187.324 77.1323 190.538C71.5594 194.965 64.4657 197.923 56.7417 198.632C54.5438 198.835 52.3876 198.882 50.2417 198.934C40.549 199.163 30.9136 199.387 17.9969 215.725C17.2261 216.699 15.8094 216.866 14.8303 216.09C14.4969 215.819 14.2521 215.47 14.1167 215.09Z" fill="white"/>
</svg>
