<svg xmlns="http://www.w3.org/2000/svg" xmlns:xlink="http://www.w3.org/1999/xlink" width="500" zoomAndPan="magnify" viewBox="0 0 375 374.999991" height="500" preserveAspectRatio="xMidYMid meet" version="1.0"><defs><clipPath id="22cee4a9f6"><path d="M 17.25 0 L 358.382812 0 C 362.960938 0 367.347656 1.816406 370.582031 5.050781 C 373.816406 8.289062 375.632812 12.675781 375.632812 17.25 L 375.632812 357.75 C 375.632812 362.324219 373.816406 366.710938 370.582031 369.949219 C 367.347656 373.183594 362.960938 375 358.382812 375 L 17.25 375 C 12.675781 375 8.289062 373.183594 5.050781 369.949219 C 1.816406 366.710938 0 362.324219 0 357.75 L 0 17.25 C 0 12.675781 1.816406 8.289062 5.050781 5.050781 C 8.289062 1.816406 12.675781 0 17.25 0 Z M 17.25 0 " clip-rule="nonzero"/></clipPath><clipPath id="368640977f"><path d="M 0 0 L 375 0 L 375 375 L 0 375 Z M 0 0 " clip-rule="nonzero"/></clipPath><clipPath id="317eb8e6a3"><path d="M 17.25 0 L 358.382812 0 C 362.960938 0 367.347656 1.816406 370.582031 5.050781 C 373.816406 8.289062 375.632812 12.675781 375.632812 17.25 L 375.632812 357.75 C 375.632812 362.324219 373.816406 366.710938 370.582031 369.949219 C 367.347656 373.183594 362.960938 375 358.382812 375 L 17.25 375 C 12.675781 375 8.289062 373.183594 5.050781 369.949219 C 1.816406 366.710938 0 362.324219 0 357.75 L 0 17.25 C 0 12.675781 1.816406 8.289062 5.050781 5.050781 C 8.289062 1.816406 12.675781 0 17.25 0 Z M 17.25 0 " clip-rule="nonzero"/></clipPath><linearGradient x1="128.216995" gradientTransform="matrix(1.464844, 0, 0, 1.464844, -0.00815389, 0)" y1="0" x2="128.216995" gradientUnits="userSpaceOnUse" y2="256" id="5cd7229de4"><stop stop-opacity="1" stop-color="rgb(0%, 18.03894%, 52.938843%)" offset="0"/><stop stop-opacity="1" stop-color="rgb(0.0350952%, 18.261719%, 53.121948%)" offset="0.00390625"/><stop stop-opacity="1" stop-color="rgb(0.0701904%, 18.486023%, 53.30658%)" offset="0.0078125"/><stop stop-opacity="1" stop-color="rgb(0.105286%, 18.708801%, 53.489685%)" offset="0.0117188"/><stop stop-opacity="1" stop-color="rgb(0.140381%, 18.933105%, 53.674316%)" offset="0.015625"/><stop stop-opacity="1" stop-color="rgb(0.175476%, 19.15741%, 53.857422%)" offset="0.0195312"/><stop stop-opacity="1" stop-color="rgb(0.210571%, 19.381714%, 54.042053%)" offset="0.0234375"/><stop stop-opacity="1" stop-color="rgb(0.245667%, 19.604492%, 54.225159%)" offset="0.0273438"/><stop stop-opacity="1" stop-color="rgb(0.280762%, 19.828796%, 54.40979%)" offset="0.03125"/><stop stop-opacity="1" stop-color="rgb(0.315857%, 20.051575%, 54.592896%)" offset="0.0351562"/><stop stop-opacity="1" stop-color="rgb(0.350952%, 20.275879%, 54.777527%)" offset="0.0390625"/><stop stop-opacity="1" stop-color="rgb(0.386047%, 20.498657%, 54.960632%)" offset="0.0429688"/><stop stop-opacity="1" stop-color="rgb(0.422668%, 20.722961%, 55.145264%)" offset="0.046875"/><stop stop-opacity="1" stop-color="rgb(0.457764%, 20.94574%, 55.328369%)" offset="0.0507812"/><stop stop-opacity="1" stop-color="rgb(0.492859%, 21.170044%, 55.513%)" offset="0.0546875"/><stop stop-opacity="1" stop-color="rgb(0.527954%, 21.392822%, 55.696106%)" offset="0.0585938"/><stop stop-opacity="1" stop-color="rgb(0.563049%, 21.617126%, 55.880737%)" offset="0.0625"/><stop stop-opacity="1" stop-color="rgb(0.598145%, 21.839905%, 56.063843%)" offset="0.0664062"/><stop stop-opacity="1" stop-color="rgb(0.63324%, 22.064209%, 56.248474%)" offset="0.0703125"/><stop stop-opacity="1" stop-color="rgb(0.668335%, 22.286987%, 56.43158%)" offset="0.0742188"/><stop stop-opacity="1" stop-color="rgb(0.70343%, 22.511292%, 56.616211%)" offset="0.078125"/><stop stop-opacity="1" stop-color="rgb(0.738525%, 22.735596%, 56.799316%)" offset="0.0820312"/><stop stop-opacity="1" stop-color="rgb(0.775146%, 22.9599%, 56.983948%)" offset="0.0859375"/><stop stop-opacity="1" stop-color="rgb(0.810242%, 23.182678%, 57.167053%)" offset="0.0898438"/><stop stop-opacity="1" stop-color="rgb(0.845337%, 23.406982%, 57.351685%)" offset="0.09375"/><stop stop-opacity="1" stop-color="rgb(0.880432%, 23.629761%, 57.53479%)" offset="0.0976562"/><stop stop-opacity="1" stop-color="rgb(0.915527%, 23.854065%, 57.719421%)" offset="0.101562"/><stop stop-opacity="1" stop-color="rgb(0.950623%, 24.076843%, 57.902527%)" offset="0.105469"/><stop stop-opacity="1" stop-color="rgb(0.985718%, 24.301147%, 58.087158%)" offset="0.109375"/><stop stop-opacity="1" stop-color="rgb(1.020813%, 24.523926%, 58.270264%)" offset="0.113281"/><stop stop-opacity="1" stop-color="rgb(1.055908%, 24.74823%, 58.453369%)" offset="0.117188"/><stop stop-opacity="1" stop-color="rgb(1.091003%, 24.971008%, 58.636475%)" offset="0.121094"/><stop stop-opacity="1" stop-color="rgb(1.126099%, 25.195312%, 58.821106%)" offset="0.125"/><stop stop-opacity="1" stop-color="rgb(1.161194%, 25.418091%, 59.004211%)" offset="0.128906"/><stop stop-opacity="1" stop-color="rgb(1.197815%, 25.642395%, 59.188843%)" offset="0.132812"/><stop stop-opacity="1" stop-color="rgb(1.23291%, 25.865173%, 59.371948%)" offset="0.136719"/><stop stop-opacity="1" stop-color="rgb(1.268005%, 26.089478%, 59.55658%)" offset="0.140625"/><stop stop-opacity="1" stop-color="rgb(1.303101%, 26.312256%, 59.739685%)" offset="0.144531"/><stop stop-opacity="1" stop-color="rgb(1.338196%, 26.53656%, 59.924316%)" offset="0.148438"/><stop stop-opacity="1" stop-color="rgb(1.373291%, 26.760864%, 60.107422%)" offset="0.152344"/><stop stop-opacity="1" stop-color="rgb(1.408386%, 26.985168%, 60.292053%)" offset="0.15625"/><stop stop-opacity="1" stop-color="rgb(1.443481%, 27.207947%, 60.475159%)" offset="0.160156"/><stop stop-opacity="1" stop-color="rgb(1.478577%, 27.432251%, 60.65979%)" offset="0.164062"/><stop stop-opacity="1" stop-color="rgb(1.513672%, 27.655029%, 60.842896%)" offset="0.167969"/><stop stop-opacity="1" stop-color="rgb(1.550293%, 27.879333%, 61.027527%)" offset="0.171875"/><stop stop-opacity="1" stop-color="rgb(1.585388%, 28.102112%, 61.210632%)" offset="0.175781"/><stop stop-opacity="1" stop-color="rgb(1.620483%, 28.326416%, 61.395264%)" offset="0.179688"/><stop stop-opacity="1" stop-color="rgb(1.655579%, 28.549194%, 61.578369%)" offset="0.183594"/><stop stop-opacity="1" stop-color="rgb(1.690674%, 28.773499%, 61.763%)" offset="0.1875"/><stop stop-opacity="1" stop-color="rgb(1.725769%, 28.996277%, 61.946106%)" offset="0.191406"/><stop stop-opacity="1" stop-color="rgb(1.760864%, 29.220581%, 62.130737%)" offset="0.195312"/><stop stop-opacity="1" stop-color="rgb(1.795959%, 29.443359%, 62.313843%)" offset="0.199219"/><stop stop-opacity="1" stop-color="rgb(1.831055%, 29.667664%, 62.498474%)" offset="0.203125"/><stop stop-opacity="1" stop-color="rgb(1.86615%, 29.890442%, 62.68158%)" offset="0.207031"/><stop stop-opacity="1" stop-color="rgb(1.901245%, 30.114746%, 62.866211%)" offset="0.210938"/><stop stop-opacity="1" stop-color="rgb(1.93634%, 30.33905%, 63.049316%)" offset="0.214844"/><stop stop-opacity="1" stop-color="rgb(1.972961%, 30.563354%, 63.233948%)" offset="0.21875"/><stop stop-opacity="1" stop-color="rgb(2.008057%, 30.786133%, 63.417053%)" offset="0.222656"/><stop stop-opacity="1" stop-color="rgb(2.043152%, 31.010437%, 63.601685%)" offset="0.226562"/><stop stop-opacity="1" stop-color="rgb(2.078247%, 31.233215%, 63.78479%)" offset="0.230469"/><stop stop-opacity="1" stop-color="rgb(2.113342%, 31.45752%, 63.969421%)" offset="0.234375"/><stop stop-opacity="1" stop-color="rgb(2.148438%, 31.680298%, 64.152527%)" offset="0.238281"/><stop stop-opacity="1" stop-color="rgb(2.183533%, 31.904602%, 64.337158%)" offset="0.242188"/><stop stop-opacity="1" stop-color="rgb(2.218628%, 32.12738%, 64.520264%)" offset="0.246094"/><stop stop-opacity="1" stop-color="rgb(2.253723%, 32.351685%, 64.704895%)" offset="0.25"/><stop stop-opacity="1" stop-color="rgb(2.288818%, 32.574463%, 64.888%)" offset="0.253906"/><stop stop-opacity="1" stop-color="rgb(2.325439%, 32.798767%, 65.072632%)" offset="0.257812"/><stop stop-opacity="1" stop-color="rgb(2.360535%, 33.021545%, 65.255737%)" offset="0.261719"/><stop stop-opacity="1" stop-color="rgb(2.39563%, 33.24585%, 65.438843%)" offset="0.265625"/><stop stop-opacity="1" stop-color="rgb(2.430725%, 33.468628%, 65.621948%)" offset="0.269531"/><stop stop-opacity="1" stop-color="rgb(2.46582%, 33.692932%, 65.80658%)" offset="0.273438"/><stop stop-opacity="1" stop-color="rgb(2.500916%, 33.917236%, 65.989685%)" offset="0.277344"/><stop stop-opacity="1" stop-color="rgb(2.536011%, 34.141541%, 66.174316%)" offset="0.28125"/><stop stop-opacity="1" stop-color="rgb(2.571106%, 34.364319%, 66.357422%)" offset="0.285156"/><stop stop-opacity="1" stop-color="rgb(2.606201%, 34.588623%, 66.542053%)" offset="0.289062"/><stop stop-opacity="1" stop-color="rgb(2.641296%, 34.811401%, 66.725159%)" offset="0.292969"/><stop stop-opacity="1" stop-color="rgb(2.676392%, 35.035706%, 66.90979%)" offset="0.296875"/><stop stop-opacity="1" stop-color="rgb(2.711487%, 35.258484%, 67.092896%)" offset="0.300781"/><stop stop-opacity="1" stop-color="rgb(2.748108%, 35.482788%, 67.277527%)" offset="0.304688"/><stop stop-opacity="1" stop-color="rgb(2.783203%, 35.705566%, 67.460632%)" offset="0.308594"/><stop stop-opacity="1" stop-color="rgb(2.818298%, 35.929871%, 67.645264%)" offset="0.3125"/><stop stop-opacity="1" stop-color="rgb(2.853394%, 36.152649%, 67.828369%)" offset="0.316406"/><stop stop-opacity="1" stop-color="rgb(2.888489%, 36.376953%, 68.013%)" offset="0.320312"/><stop stop-opacity="1" stop-color="rgb(2.923584%, 36.599731%, 68.196106%)" offset="0.324219"/><stop stop-opacity="1" stop-color="rgb(2.958679%, 36.824036%, 68.380737%)" offset="0.328125"/><stop stop-opacity="1" stop-color="rgb(2.993774%, 37.046814%, 68.563843%)" offset="0.332031"/><stop stop-opacity="1" stop-color="rgb(3.02887%, 37.271118%, 68.748474%)" offset="0.335938"/><stop stop-opacity="1" stop-color="rgb(3.063965%, 37.493896%, 68.93158%)" offset="0.339844"/><stop stop-opacity="1" stop-color="rgb(3.100586%, 37.718201%, 69.116211%)" offset="0.34375"/><stop stop-opacity="1" stop-color="rgb(3.135681%, 37.942505%, 69.299316%)" offset="0.347656"/><stop stop-opacity="1" stop-color="rgb(3.170776%, 38.166809%, 69.483948%)" offset="0.351562"/><stop stop-opacity="1" stop-color="rgb(3.205872%, 38.389587%, 69.667053%)" offset="0.355469"/><stop stop-opacity="1" stop-color="rgb(3.240967%, 38.613892%, 69.851685%)" offset="0.359375"/><stop stop-opacity="1" stop-color="rgb(3.276062%, 38.83667%, 70.03479%)" offset="0.363281"/><stop stop-opacity="1" stop-color="rgb(3.311157%, 39.060974%, 70.219421%)" offset="0.367188"/><stop stop-opacity="1" stop-color="rgb(3.346252%, 39.283752%, 70.402527%)" offset="0.371094"/><stop stop-opacity="1" stop-color="rgb(3.381348%, 39.508057%, 70.587158%)" offset="0.375"/><stop stop-opacity="1" stop-color="rgb(3.416443%, 39.730835%, 70.770264%)" offset="0.378906"/><stop stop-opacity="1" stop-color="rgb(3.451538%, 39.955139%, 70.954895%)" offset="0.382812"/><stop stop-opacity="1" stop-color="rgb(3.486633%, 40.177917%, 71.138%)" offset="0.386719"/><stop stop-opacity="1" stop-color="rgb(3.523254%, 40.402222%, 71.322632%)" offset="0.390625"/><stop stop-opacity="1" stop-color="rgb(3.55835%, 40.625%, 71.505737%)" offset="0.394531"/><stop stop-opacity="1" stop-color="rgb(3.593445%, 40.849304%, 71.690369%)" offset="0.398438"/><stop stop-opacity="1" stop-color="rgb(3.62854%, 41.072083%, 71.873474%)" offset="0.402344"/><stop stop-opacity="1" stop-color="rgb(3.663635%, 41.296387%, 72.058105%)" offset="0.40625"/><stop stop-opacity="1" stop-color="rgb(3.69873%, 41.520691%, 72.241211%)" offset="0.410156"/><stop stop-opacity="1" stop-color="rgb(3.733826%, 41.744995%, 72.424316%)" offset="0.414062"/><stop stop-opacity="1" stop-color="rgb(3.768921%, 41.967773%, 72.607422%)" offset="0.417969"/><stop stop-opacity="1" stop-color="rgb(3.804016%, 42.192078%, 72.792053%)" offset="0.421875"/><stop stop-opacity="1" stop-color="rgb(3.839111%, 42.414856%, 72.975159%)" offset="0.425781"/><stop stop-opacity="1" stop-color="rgb(3.875732%, 42.63916%, 73.15979%)" offset="0.429688"/><stop stop-opacity="1" stop-color="rgb(3.910828%, 42.861938%, 73.342896%)" offset="0.433594"/><stop stop-opacity="1" stop-color="rgb(3.945923%, 43.086243%, 73.527527%)" offset="0.4375"/><stop stop-opacity="1" stop-color="rgb(3.981018%, 43.309021%, 73.710632%)" offset="0.441406"/><stop stop-opacity="1" stop-color="rgb(4.016113%, 43.533325%, 73.895264%)" offset="0.445312"/><stop stop-opacity="1" stop-color="rgb(4.051208%, 43.756104%, 74.078369%)" offset="0.449219"/><stop stop-opacity="1" stop-color="rgb(4.086304%, 43.980408%, 74.263%)" offset="0.453125"/><stop stop-opacity="1" stop-color="rgb(4.121399%, 44.203186%, 74.446106%)" offset="0.457031"/><stop stop-opacity="1" stop-color="rgb(4.156494%, 44.42749%, 74.630737%)" offset="0.460938"/><stop stop-opacity="1" stop-color="rgb(4.191589%, 44.650269%, 74.813843%)" offset="0.464844"/><stop stop-opacity="1" stop-color="rgb(4.226685%, 44.874573%, 74.998474%)" offset="0.46875"/><stop stop-opacity="1" stop-color="rgb(4.26178%, 45.098877%, 75.18158%)" offset="0.472656"/><stop stop-opacity="1" stop-color="rgb(4.298401%, 45.323181%, 75.366211%)" offset="0.476562"/><stop stop-opacity="1" stop-color="rgb(4.333496%, 45.545959%, 75.549316%)" offset="0.480469"/><stop stop-opacity="1" stop-color="rgb(4.368591%, 45.770264%, 75.733948%)" offset="0.484375"/><stop stop-opacity="1" stop-color="rgb(4.403687%, 45.993042%, 75.917053%)" offset="0.488281"/><stop stop-opacity="1" stop-color="rgb(4.438782%, 46.217346%, 76.101685%)" offset="0.492188"/><stop stop-opacity="1" stop-color="rgb(4.473877%, 46.440125%, 76.28479%)" offset="0.496094"/><stop stop-opacity="1" stop-color="rgb(4.508972%, 46.664429%, 76.469421%)" offset="0.5"/><stop stop-opacity="1" stop-color="rgb(4.544067%, 46.887207%, 76.652527%)" offset="0.503906"/><stop stop-opacity="1" stop-color="rgb(4.579163%, 47.111511%, 76.837158%)" offset="0.507812"/><stop stop-opacity="1" stop-color="rgb(4.614258%, 47.33429%, 77.020264%)" offset="0.511719"/><stop stop-opacity="1" stop-color="rgb(4.650879%, 47.558594%, 77.204895%)" offset="0.515625"/><stop stop-opacity="1" stop-color="rgb(4.685974%, 47.781372%, 77.388%)" offset="0.519531"/><stop stop-opacity="1" stop-color="rgb(4.721069%, 48.005676%, 77.572632%)" offset="0.523438"/><stop stop-opacity="1" stop-color="rgb(4.756165%, 48.228455%, 77.755737%)" offset="0.527344"/><stop stop-opacity="1" stop-color="rgb(4.79126%, 48.452759%, 77.940369%)" offset="0.53125"/><stop stop-opacity="1" stop-color="rgb(4.826355%, 48.675537%, 78.123474%)" offset="0.535156"/><stop stop-opacity="1" stop-color="rgb(4.86145%, 48.899841%, 78.308105%)" offset="0.539062"/><stop stop-opacity="1" stop-color="rgb(4.896545%, 49.124146%, 78.491211%)" offset="0.542969"/><stop stop-opacity="1" stop-color="rgb(4.931641%, 49.34845%, 78.675842%)" offset="0.546875"/><stop stop-opacity="1" stop-color="rgb(4.966736%, 49.571228%, 78.858948%)" offset="0.550781"/><stop stop-opacity="1" stop-color="rgb(5.001831%, 49.795532%, 79.043579%)" offset="0.554688"/><stop stop-opacity="1" stop-color="rgb(5.036926%, 50.018311%, 79.226685%)" offset="0.558594"/><stop stop-opacity="1" stop-color="rgb(5.073547%, 50.242615%, 79.40979%)" offset="0.5625"/><stop stop-opacity="1" stop-color="rgb(5.108643%, 50.465393%, 79.592896%)" offset="0.566406"/><stop stop-opacity="1" stop-color="rgb(5.143738%, 50.689697%, 79.777527%)" offset="0.570312"/><stop stop-opacity="1" stop-color="rgb(5.178833%, 50.912476%, 79.960632%)" offset="0.574219"/><stop stop-opacity="1" stop-color="rgb(5.213928%, 51.13678%, 80.145264%)" offset="0.578125"/><stop stop-opacity="1" stop-color="rgb(5.249023%, 51.359558%, 80.328369%)" offset="0.582031"/><stop stop-opacity="1" stop-color="rgb(5.284119%, 51.583862%, 80.513%)" offset="0.585938"/><stop stop-opacity="1" stop-color="rgb(5.319214%, 51.806641%, 80.696106%)" offset="0.589844"/><stop stop-opacity="1" stop-color="rgb(5.354309%, 52.030945%, 80.880737%)" offset="0.59375"/><stop stop-opacity="1" stop-color="rgb(5.389404%, 52.253723%, 81.063843%)" offset="0.597656"/><stop stop-opacity="1" stop-color="rgb(5.426025%, 52.478027%, 81.248474%)" offset="0.601562"/><stop stop-opacity="1" stop-color="rgb(5.461121%, 52.702332%, 81.43158%)" offset="0.605469"/><stop stop-opacity="1" stop-color="rgb(5.496216%, 52.926636%, 81.616211%)" offset="0.609375"/><stop stop-opacity="1" stop-color="rgb(5.531311%, 53.149414%, 81.799316%)" offset="0.613281"/><stop stop-opacity="1" stop-color="rgb(5.566406%, 53.373718%, 81.983948%)" offset="0.617188"/><stop stop-opacity="1" stop-color="rgb(5.601501%, 53.596497%, 82.167053%)" offset="0.621094"/><stop stop-opacity="1" stop-color="rgb(5.636597%, 53.820801%, 82.351685%)" offset="0.625"/><stop stop-opacity="1" stop-color="rgb(5.671692%, 54.043579%, 82.53479%)" offset="0.628906"/><stop stop-opacity="1" stop-color="rgb(5.706787%, 54.267883%, 82.719421%)" offset="0.632812"/><stop stop-opacity="1" stop-color="rgb(5.741882%, 54.490662%, 82.902527%)" offset="0.636719"/><stop stop-opacity="1" stop-color="rgb(5.776978%, 54.714966%, 83.087158%)" offset="0.640625"/><stop stop-opacity="1" stop-color="rgb(5.812073%, 54.937744%, 83.270264%)" offset="0.644531"/><stop stop-opacity="1" stop-color="rgb(5.848694%, 55.162048%, 83.454895%)" offset="0.648438"/><stop stop-opacity="1" stop-color="rgb(5.883789%, 55.384827%, 83.638%)" offset="0.652344"/><stop stop-opacity="1" stop-color="rgb(5.918884%, 55.609131%, 83.822632%)" offset="0.65625"/><stop stop-opacity="1" stop-color="rgb(5.953979%, 55.831909%, 84.005737%)" offset="0.660156"/><stop stop-opacity="1" stop-color="rgb(5.989075%, 56.056213%, 84.190369%)" offset="0.664062"/><stop stop-opacity="1" stop-color="rgb(6.02417%, 56.280518%, 84.373474%)" offset="0.667969"/><stop stop-opacity="1" stop-color="rgb(6.059265%, 56.504822%, 84.558105%)" offset="0.671875"/><stop stop-opacity="1" stop-color="rgb(6.09436%, 56.7276%, 84.741211%)" offset="0.675781"/><stop stop-opacity="1" stop-color="rgb(6.129456%, 56.951904%, 84.925842%)" offset="0.679688"/><stop stop-opacity="1" stop-color="rgb(6.164551%, 57.174683%, 85.108948%)" offset="0.683594"/><stop stop-opacity="1" stop-color="rgb(6.201172%, 57.398987%, 85.293579%)" offset="0.6875"/><stop stop-opacity="1" stop-color="rgb(6.236267%, 57.621765%, 85.476685%)" offset="0.691406"/><stop stop-opacity="1" stop-color="rgb(6.271362%, 57.846069%, 85.661316%)" offset="0.695312"/><stop stop-opacity="1" stop-color="rgb(6.306458%, 58.068848%, 85.844421%)" offset="0.699219"/><stop stop-opacity="1" stop-color="rgb(6.341553%, 58.293152%, 86.029053%)" offset="0.703125"/><stop stop-opacity="1" stop-color="rgb(6.376648%, 58.51593%, 86.212158%)" offset="0.707031"/><stop stop-opacity="1" stop-color="rgb(6.411743%, 58.740234%, 86.395264%)" offset="0.710938"/><stop stop-opacity="1" stop-color="rgb(6.446838%, 58.963013%, 86.578369%)" offset="0.714844"/><stop stop-opacity="1" stop-color="rgb(6.481934%, 59.187317%, 86.763%)" offset="0.71875"/><stop stop-opacity="1" stop-color="rgb(6.517029%, 59.410095%, 86.946106%)" offset="0.722656"/><stop stop-opacity="1" stop-color="rgb(6.552124%, 59.634399%, 87.130737%)" offset="0.726562"/><stop stop-opacity="1" stop-color="rgb(6.587219%, 59.857178%, 87.313843%)" offset="0.730469"/><stop stop-opacity="1" stop-color="rgb(6.62384%, 60.081482%, 87.498474%)" offset="0.734375"/><stop stop-opacity="1" stop-color="rgb(6.658936%, 60.305786%, 87.68158%)" offset="0.738281"/><stop stop-opacity="1" stop-color="rgb(6.694031%, 60.53009%, 87.866211%)" offset="0.742188"/><stop stop-opacity="1" stop-color="rgb(6.729126%, 60.752869%, 88.049316%)" offset="0.746094"/><stop stop-opacity="1" stop-color="rgb(6.764221%, 60.977173%, 88.233948%)" offset="0.75"/><stop stop-opacity="1" stop-color="rgb(6.799316%, 61.199951%, 88.417053%)" offset="0.753906"/><stop stop-opacity="1" stop-color="rgb(6.834412%, 61.424255%, 88.601685%)" offset="0.757812"/><stop stop-opacity="1" stop-color="rgb(6.869507%, 61.647034%, 88.78479%)" offset="0.761719"/><stop stop-opacity="1" stop-color="rgb(6.904602%, 61.871338%, 88.969421%)" offset="0.765625"/><stop stop-opacity="1" stop-color="rgb(6.939697%, 62.094116%, 89.152527%)" offset="0.769531"/><stop stop-opacity="1" stop-color="rgb(6.976318%, 62.31842%, 89.337158%)" offset="0.773438"/><stop stop-opacity="1" stop-color="rgb(7.011414%, 62.541199%, 89.520264%)" offset="0.777344"/><stop stop-opacity="1" stop-color="rgb(7.046509%, 62.765503%, 89.704895%)" offset="0.78125"/><stop stop-opacity="1" stop-color="rgb(7.081604%, 62.988281%, 89.888%)" offset="0.785156"/><stop stop-opacity="1" stop-color="rgb(7.116699%, 63.212585%, 90.072632%)" offset="0.789062"/><stop stop-opacity="1" stop-color="rgb(7.151794%, 63.435364%, 90.255737%)" offset="0.792969"/><stop stop-opacity="1" stop-color="rgb(7.18689%, 63.659668%, 90.440369%)" offset="0.796875"/><stop stop-opacity="1" stop-color="rgb(7.221985%, 63.883972%, 90.623474%)" offset="0.800781"/><stop stop-opacity="1" stop-color="rgb(7.25708%, 64.108276%, 90.808105%)" offset="0.804688"/><stop stop-opacity="1" stop-color="rgb(7.292175%, 64.331055%, 90.991211%)" offset="0.808594"/><stop stop-opacity="1" stop-color="rgb(7.327271%, 64.555359%, 91.175842%)" offset="0.8125"/><stop stop-opacity="1" stop-color="rgb(7.362366%, 64.778137%, 91.358948%)" offset="0.816406"/><stop stop-opacity="1" stop-color="rgb(7.398987%, 65.002441%, 91.543579%)" offset="0.820312"/><stop stop-opacity="1" stop-color="rgb(7.434082%, 65.22522%, 91.726685%)" offset="0.824219"/><stop stop-opacity="1" stop-color="rgb(7.469177%, 65.449524%, 91.911316%)" offset="0.828125"/><stop stop-opacity="1" stop-color="rgb(7.504272%, 65.672302%, 92.094421%)" offset="0.832031"/><stop stop-opacity="1" stop-color="rgb(7.539368%, 65.896606%, 92.279053%)" offset="0.835938"/><stop stop-opacity="1" stop-color="rgb(7.574463%, 66.119385%, 92.462158%)" offset="0.839844"/><stop stop-opacity="1" stop-color="rgb(7.609558%, 66.343689%, 92.64679%)" offset="0.84375"/><stop stop-opacity="1" stop-color="rgb(7.644653%, 66.566467%, 92.829895%)" offset="0.847656"/><stop stop-opacity="1" stop-color="rgb(7.679749%, 66.790771%, 93.014526%)" offset="0.851562"/><stop stop-opacity="1" stop-color="rgb(7.714844%, 67.01355%, 93.197632%)" offset="0.855469"/><stop stop-opacity="1" stop-color="rgb(7.751465%, 67.237854%, 93.380737%)" offset="0.859375"/><stop stop-opacity="1" stop-color="rgb(7.78656%, 67.462158%, 93.563843%)" offset="0.863281"/><stop stop-opacity="1" stop-color="rgb(7.821655%, 67.686462%, 93.748474%)" offset="0.867188"/><stop stop-opacity="1" stop-color="rgb(7.85675%, 67.909241%, 93.93158%)" offset="0.871094"/><stop stop-opacity="1" stop-color="rgb(7.891846%, 68.133545%, 94.116211%)" offset="0.875"/><stop stop-opacity="1" stop-color="rgb(7.926941%, 68.356323%, 94.299316%)" offset="0.878906"/><stop stop-opacity="1" stop-color="rgb(7.962036%, 68.580627%, 94.483948%)" offset="0.882812"/><stop stop-opacity="1" stop-color="rgb(7.997131%, 68.803406%, 94.667053%)" offset="0.886719"/><stop stop-opacity="1" stop-color="rgb(8.032227%, 69.02771%, 94.851685%)" offset="0.890625"/><stop stop-opacity="1" stop-color="rgb(8.067322%, 69.250488%, 95.03479%)" offset="0.894531"/><stop stop-opacity="1" stop-color="rgb(8.102417%, 69.474792%, 95.219421%)" offset="0.898438"/><stop stop-opacity="1" stop-color="rgb(8.137512%, 69.697571%, 95.402527%)" offset="0.902344"/><stop stop-opacity="1" stop-color="rgb(8.174133%, 69.921875%, 95.587158%)" offset="0.90625"/><stop stop-opacity="1" stop-color="rgb(8.209229%, 70.144653%, 95.770264%)" offset="0.910156"/><stop stop-opacity="1" stop-color="rgb(8.244324%, 70.368958%, 95.954895%)" offset="0.914062"/><stop stop-opacity="1" stop-color="rgb(8.279419%, 70.591736%, 96.138%)" offset="0.917969"/><stop stop-opacity="1" stop-color="rgb(8.314514%, 70.81604%, 96.322632%)" offset="0.921875"/><stop stop-opacity="1" stop-color="rgb(8.349609%, 71.038818%, 96.505737%)" offset="0.925781"/><stop stop-opacity="1" stop-color="rgb(8.384705%, 71.263123%, 96.690369%)" offset="0.929688"/><stop stop-opacity="1" stop-color="rgb(8.4198%, 71.487427%, 96.873474%)" offset="0.933594"/><stop stop-opacity="1" stop-color="rgb(8.454895%, 71.711731%, 97.058105%)" offset="0.9375"/><stop stop-opacity="1" stop-color="rgb(8.48999%, 71.934509%, 97.241211%)" offset="0.941406"/><stop stop-opacity="1" stop-color="rgb(8.526611%, 72.158813%, 97.425842%)" offset="0.945312"/><stop stop-opacity="1" stop-color="rgb(8.561707%, 72.381592%, 97.608948%)" offset="0.949219"/><stop stop-opacity="1" stop-color="rgb(8.596802%, 72.605896%, 97.793579%)" offset="0.953125"/><stop stop-opacity="1" stop-color="rgb(8.631897%, 72.828674%, 97.976685%)" offset="0.957031"/><stop stop-opacity="1" stop-color="rgb(8.666992%, 73.052979%, 98.161316%)" offset="0.960938"/><stop stop-opacity="1" stop-color="rgb(8.702087%, 73.275757%, 98.344421%)" offset="0.964844"/><stop stop-opacity="1" stop-color="rgb(8.737183%, 73.500061%, 98.529053%)" offset="0.96875"/><stop stop-opacity="1" stop-color="rgb(8.772278%, 73.722839%, 98.712158%)" offset="0.972656"/><stop stop-opacity="1" stop-color="rgb(8.807373%, 73.947144%, 98.89679%)" offset="0.976562"/><stop stop-opacity="1" stop-color="rgb(8.842468%, 74.169922%, 99.079895%)" offset="0.980469"/><stop stop-opacity="1" stop-color="rgb(8.877563%, 74.394226%, 99.264526%)" offset="0.984375"/><stop stop-opacity="1" stop-color="rgb(8.912659%, 74.617004%, 99.447632%)" offset="0.988281"/><stop stop-opacity="1" stop-color="rgb(8.94928%, 74.841309%, 99.632263%)" offset="0.992188"/><stop stop-opacity="1" stop-color="rgb(8.984375%, 75.065613%, 99.815369%)" offset="0.996094"/><stop stop-opacity="1" stop-color="rgb(9.01947%, 75.289917%, 100%)" offset="1"/></linearGradient><clipPath id="b306d8aa9c"><rect x="0" width="375" y="0" height="375"/></clipPath><clipPath id="c4f1d72aa9"><path d="M 144 111 L 221 111 L 221 187 L 144 187 Z M 144 111 " clip-rule="nonzero"/></clipPath><clipPath id="99602fa174"><path d="M 119.265625 -46.324219 L 392.507812 -37.546875 L 384.160156 222.167969 L 110.921875 213.386719 Z M 119.265625 -46.324219 " clip-rule="nonzero"/></clipPath><clipPath id="f7965f86cc"><path d="M 119.265625 -46.324219 L 392.507812 -37.546875 L 384.160156 222.167969 L 110.921875 213.386719 Z M 119.265625 -46.324219 " clip-rule="nonzero"/></clipPath><clipPath id="db5dcd029e"><path d="M 114 0 L 352 0 L 352 217 L 114 217 Z M 114 0 " clip-rule="nonzero"/></clipPath><clipPath id="19c4e92bf3"><path d="M 119.265625 -46.324219 L 392.507812 -37.546875 L 384.160156 222.167969 L 110.921875 213.386719 Z M 119.265625 -46.324219 " clip-rule="nonzero"/></clipPath><clipPath id="8d71a443b7"><path d="M 119.265625 -46.324219 L 392.507812 -37.546875 L 384.160156 222.167969 L 110.921875 213.386719 Z M 119.265625 -46.324219 " clip-rule="nonzero"/></clipPath><clipPath id="0dbd5bfe7c"><path d="M 59 197 L 198 197 L 198 337 L 59 337 Z M 59 197 " clip-rule="nonzero"/></clipPath><clipPath id="be78d4f6ec"><path d="M 104.53125 361.472656 L 24.34375 269.789062 L 136.402344 171.78125 L 216.589844 263.464844 Z M 104.53125 361.472656 " clip-rule="nonzero"/></clipPath><clipPath id="7272e394b4"><path d="M 104.53125 361.472656 L 24.34375 269.789062 L 136.402344 171.78125 L 216.589844 263.464844 Z M 104.53125 361.472656 " clip-rule="nonzero"/></clipPath><clipPath id="51f5e8f4cd"><path d="M 52 183 L 190 183 L 190 323 L 52 323 Z M 52 183 " clip-rule="nonzero"/></clipPath><clipPath id="934a5e1f53"><path d="M 97.289062 347.511719 L 17.101562 255.828125 L 129.160156 157.820312 L 209.347656 249.503906 Z M 97.289062 347.511719 " clip-rule="nonzero"/></clipPath><clipPath id="0f25db2536"><path d="M 97.289062 347.511719 L 17.101562 255.828125 L 129.160156 157.820312 L 209.347656 249.503906 Z M 97.289062 347.511719 " clip-rule="nonzero"/></clipPath><clipPath id="0ea61d5af4"><path d="M 43 170 L 181 170 L 181 310 L 43 310 Z M 43 170 " clip-rule="nonzero"/></clipPath><clipPath id="7e966d73dd"><path d="M 88.28125 334.1875 L 8.09375 242.503906 L 120.152344 144.496094 L 200.339844 236.179688 Z M 88.28125 334.1875 " clip-rule="nonzero"/></clipPath><clipPath id="071cacd5c9"><path d="M 88.28125 334.1875 L 8.09375 242.503906 L 120.152344 144.496094 L 200.339844 236.179688 Z M 88.28125 334.1875 " clip-rule="nonzero"/></clipPath><clipPath id="be3f7df92d"><path d="M 35 157 L 173 157 L 173 297 L 35 297 Z M 35 157 " clip-rule="nonzero"/></clipPath><clipPath id="c360def110"><path d="M 80.160156 321.257812 L -0.0273438 229.574219 L 112.03125 131.566406 L 192.21875 223.25 Z M 80.160156 321.257812 " clip-rule="nonzero"/></clipPath><clipPath id="1616005c99"><path d="M 80.160156 321.257812 L -0.0273438 229.574219 L 112.03125 131.566406 L 192.21875 223.25 Z M 80.160156 321.257812 " clip-rule="nonzero"/></clipPath><clipPath id="fd5f357f6d"><rect x="0" width="352" y="0" height="362"/></clipPath></defs><g clip-path="url(#22cee4a9f6)"><g transform="matrix(1, 0, 0, 1, 0, 0)"><g clip-path="url(#b306d8aa9c)"><g clip-path="url(#368640977f)"><g clip-path="url(#317eb8e6a3)"><rect x="-82.5" fill="url(#5cd7229de4)" width="540" height="539.999987" y="-82.499998"/></g></g></g></g></g><g transform="matrix(1, 0, 0, 1, 23, 0)"><g clip-path="url(#fd5f357f6d)"><g clip-path="url(#c4f1d72aa9)"><g clip-path="url(#99602fa174)"><g clip-path="url(#f7965f86cc)"><path fill="#ffffff" d="M 144.789062 125.882812 L 204.507812 186.5625 L 220.140625 177.972656 L 154.785156 111.570312 Z M 144.789062 125.882812 " fill-opacity="1" fill-rule="nonzero"/></g></g></g><g clip-path="url(#db5dcd029e)"><g clip-path="url(#19c4e92bf3)"><g clip-path="url(#8d71a443b7)"><path fill="#ffffff" d="M 297.691406 46.308594 C 289.867188 38.359375 290.269531 25.894531 298.585938 18.464844 C 306.898438 11.035156 319.980469 11.453125 327.804688 19.402344 C 335.628906 27.351562 335.230469 39.816406 326.910156 47.242188 C 318.59375 54.675781 305.511719 54.253906 297.691406 46.308594 M 291.675781 137.589844 C 298.628906 132.433594 305.394531 126.929688 311.90625 121.113281 C 336.90625 98.777344 357.300781 72.671875 370.878906 45.625 C 384.054688 19.371094 390.527344 -7.101562 389.605469 -30.921875 L 384.492188 -36.113281 C 359.601562 -38.523438 331.460938 -34.070312 303.113281 -23.226562 C 273.902344 -12.054688 245.242188 5.652344 220.246094 27.984375 C 213.734375 33.800781 207.539062 39.875 201.6875 46.160156 C 179.527344 46.085938 157.320312 53.746094 139.910156 69.304688 C 127.367188 80.5 118.957031 94.324219 114.726562 109.050781 C 129.777344 99.175781 147.609375 94.960938 165.039062 96.320312 C 163.738281 98.691406 162.480469 101.074219 161.28125 103.46875 L 229.050781 172.324219 C 231.628906 171.335938 234.207031 170.296875 236.773438 169.207031 C 237.074219 185.859375 231.511719 202.550781 220.207031 216.222656 C 235.902344 213.144531 250.925781 206.035156 263.460938 194.835938 C 280.875 179.28125 290.328125 158.660156 291.675781 137.589844 " fill-opacity="1" fill-rule="nonzero"/></g></g></g><g clip-path="url(#0dbd5bfe7c)"><g clip-path="url(#be78d4f6ec)"><g clip-path="url(#7272e394b4)"><path fill="#ffd600" d="M 81.3125 334.617188 C 81.257812 334.46875 63.71875 286.667969 81.617188 250.558594 C 76.367188 251.425781 69.261719 253.011719 64.871094 255.707031 C 63.238281 256.714844 61.101562 256.207031 60.097656 254.582031 C 59.433594 253.507812 59.425781 252.21875 59.964844 251.175781 C 61.277344 248.4375 98.480469 172.007812 165.367188 206.761719 C 167.0625 207.644531 167.726562 209.734375 166.84375 211.4375 C 166.457031 212.183594 165.839844 212.722656 165.132812 213.027344 C 144.34375 221.929688 135.003906 234.589844 133.242188 245.042969 C 132.351562 250.304688 133.425781 254.902344 135.925781 257.9375 C 138.289062 260.8125 142.050781 262.324219 146.6875 261.613281 C 155.699219 260.246094 167.648438 251.175781 179.8125 229.488281 C 180.75 227.828125 182.867188 227.234375 184.535156 228.167969 C 184.992188 228.425781 185.367188 228.773438 185.65625 229.175781 C 192.648438 238.027344 196.195312 247.167969 197.007812 255.988281 C 197.746094 264.019531 196.199219 271.773438 192.875 278.773438 C 189.585938 285.699219 184.574219 291.867188 178.335938 296.8125 C 169.75 303.628906 158.832031 308.1875 146.941406 309.277344 C 143.554688 309.589844 140.234375 309.664062 136.929688 309.742188 C 122.007812 310.097656 107.171875 310.433594 87.285156 335.59375 C 86.101562 337.089844 83.917969 337.34375 82.417969 336.15625 C 81.894531 335.742188 81.523438 335.199219 81.3125 334.617188 Z M 81.3125 334.617188 " fill-opacity="1" fill-rule="evenodd"/></g></g></g><g clip-path="url(#51f5e8f4cd)"><g clip-path="url(#934a5e1f53)"><g clip-path="url(#0f25db2536)"><path fill="#fb2a5e" d="M 74.066406 320.65625 C 74.011719 320.507812 56.476562 272.707031 74.375 236.597656 C 69.125 237.464844 62.015625 239.050781 57.625 241.742188 C 55.996094 242.753906 53.859375 242.246094 52.855469 240.621094 C 52.191406 239.546875 52.183594 238.257812 52.722656 237.214844 C 54.035156 234.476562 91.234375 158.046875 158.125 192.796875 C 159.820312 193.679688 160.484375 195.773438 159.601562 197.476562 C 159.214844 198.222656 158.597656 198.761719 157.890625 199.0625 C 137.101562 207.96875 127.761719 220.628906 126 231.082031 C 125.109375 236.34375 126.183594 240.941406 128.679688 243.976562 C 131.046875 246.851562 134.808594 248.359375 139.445312 247.648438 C 148.457031 246.285156 160.402344 237.214844 172.566406 215.527344 C 173.507812 213.867188 175.625 213.273438 177.292969 214.207031 C 177.746094 214.464844 178.125 214.808594 178.414062 215.214844 C 185.402344 224.0625 188.953125 233.207031 189.765625 242.027344 C 190.503906 250.058594 188.957031 257.808594 185.632812 264.8125 C 182.34375 271.734375 177.332031 277.90625 171.09375 282.851562 C 162.507812 289.667969 151.589844 294.222656 139.699219 295.316406 C 136.308594 295.628906 132.992188 295.703125 129.6875 295.78125 C 114.765625 296.132812 99.929688 296.472656 80.042969 321.632812 C 78.859375 323.128906 76.675781 323.382812 75.171875 322.191406 C 74.652344 321.777344 74.28125 321.234375 74.066406 320.65625 Z M 74.066406 320.65625 " fill-opacity="1" fill-rule="evenodd"/></g></g></g><g clip-path="url(#0ea61d5af4)"><g clip-path="url(#7e966d73dd)"><g clip-path="url(#071cacd5c9)"><path fill="#17c0ff" d="M 65.058594 307.332031 C 65.003906 307.183594 47.46875 259.382812 65.367188 223.273438 C 60.117188 224.140625 53.007812 225.726562 48.617188 228.417969 C 46.988281 229.429688 44.851562 228.921875 43.847656 227.296875 C 43.183594 226.222656 43.175781 224.933594 43.714844 223.890625 C 45.027344 221.152344 82.226562 144.71875 149.113281 179.472656 C 150.8125 180.355469 151.476562 182.445312 150.589844 184.152344 C 150.207031 184.898438 149.589844 185.4375 148.882812 185.738281 C 128.089844 194.644531 118.753906 207.304688 116.988281 217.757812 C 116.101562 223.015625 117.171875 227.617188 119.671875 230.652344 C 122.039062 233.527344 125.800781 235.035156 130.4375 234.324219 C 139.449219 232.960938 151.394531 223.890625 163.558594 202.203125 C 164.5 200.542969 166.613281 199.949219 168.28125 200.882812 C 168.738281 201.140625 169.117188 201.484375 169.402344 201.890625 C 176.394531 210.738281 179.945312 219.882812 180.757812 228.703125 C 181.496094 236.734375 179.945312 244.484375 176.625 251.488281 C 173.335938 258.410156 168.324219 264.582031 162.085938 269.527344 C 153.496094 276.34375 142.582031 280.898438 130.691406 281.992188 C 127.300781 282.304688 123.984375 282.378906 120.679688 282.457031 C 105.753906 282.808594 90.921875 283.148438 71.035156 308.308594 C 69.847656 309.804688 67.667969 310.058594 66.164062 308.867188 C 65.644531 308.453125 65.273438 307.910156 65.058594 307.332031 Z M 65.058594 307.332031 " fill-opacity="1" fill-rule="evenodd"/></g></g></g><g clip-path="url(#be3f7df92d)"><g clip-path="url(#c360def110)"><g clip-path="url(#1616005c99)"><path fill="#ffffff" d="M 56.9375 294.402344 C 56.886719 294.253906 39.347656 246.453125 57.246094 210.34375 C 51.996094 211.210938 44.886719 212.796875 40.496094 215.492188 C 38.867188 216.5 36.730469 215.992188 35.726562 214.367188 C 35.0625 213.292969 35.054688 212.003906 35.59375 210.960938 C 36.90625 208.222656 74.105469 131.792969 140.996094 166.542969 C 142.691406 167.425781 143.355469 169.519531 142.472656 171.222656 C 142.085938 171.96875 141.46875 172.507812 140.761719 172.8125 C 119.972656 181.714844 110.632812 194.375 108.871094 204.828125 C 107.980469 210.089844 109.054688 214.6875 111.550781 217.722656 C 113.917969 220.597656 117.679688 222.105469 122.316406 221.398438 C 131.328125 220.03125 143.273438 210.960938 155.441406 189.273438 C 156.378906 187.613281 158.496094 187.019531 160.164062 187.953125 C 160.617188 188.210938 160.996094 188.558594 161.285156 188.960938 C 168.273438 197.8125 171.824219 206.953125 172.636719 215.773438 C 173.375 223.804688 171.828125 231.558594 168.503906 238.558594 C 165.214844 245.484375 160.203125 251.652344 153.964844 256.597656 C 145.378906 263.414062 134.460938 267.972656 122.570312 269.0625 C 119.179688 269.375 115.863281 269.449219 112.558594 269.527344 C 97.636719 269.882812 82.800781 270.21875 62.914062 295.378906 C 61.730469 296.875 59.546875 297.128906 58.042969 295.941406 C 57.523438 295.523438 57.152344 294.984375 56.9375 294.402344 Z M 56.9375 294.402344 " fill-opacity="1" fill-rule="evenodd"/></g></g></g></g></g></svg>