<svg viewBox="0 8 31 32" fill="none" xmlns="http://www.w3.org/2000/svg">
  <path d="M17.296 30.5432C17.296 28.7987 17.296 27.9264 17.6355 27.2601C17.9341 26.674 18.4107 26.1974 18.9968 25.8988C19.6631 25.5593 20.5354 25.5593 22.2799 25.5593H25.512C27.2566 25.5593 28.1289 25.5593 28.7952 25.8988C29.3813 26.1974 29.8578 26.674 30.1565 27.2601C30.496 27.9264 30.496 28.7987 30.496 30.5432V33.7754C30.496 35.5199 30.496 36.3922 30.1565 37.0585C29.8578 37.6446 29.3813 38.1211 28.7952 38.4198C28.1289 38.7593 27.2566 38.7593 25.512 38.7593H22.2799C20.5354 38.7593 19.6631 38.7593 18.9968 38.4198C18.4107 38.1211 17.9341 37.6446 17.6355 37.0585C17.296 36.3922 17.296 35.5199 17.296 33.7754V30.5432Z" fill="#eeeeee"/>
  <path d="M0.974243 32.1593C0.974243 28.5142 3.92916 25.5593 7.57424 25.5593C11.2193 25.5593 14.1742 28.5142 14.1742 32.1593C14.1742 35.8044 11.2193 38.7593 7.57424 38.7593C3.92916 38.7593 0.974243 35.8044 0.974243 32.1593Z" fill="#eeeeee" fill-opacity="0.7"/>
  <path d="M0.974243 14.2242C0.974243 12.4796 0.974243 11.6074 1.31375 10.941C1.61239 10.3549 2.08892 9.87839 2.67504 9.57974C3.34137 9.24023 4.21363 9.24023 5.95817 9.24023H25.512C27.2566 9.24023 28.1289 9.24023 28.7952 9.57974C29.3813 9.87839 29.8578 10.3549 30.1565 10.941C30.496 11.6074 30.496 12.4796 30.496 14.2242V17.4563C30.496 19.2008 30.496 20.0731 30.1565 20.7394C29.8578 21.3256 29.3813 21.8021 28.7952 22.1007C28.1289 22.4402 27.2566 22.4402 25.512 22.4402H5.95817C4.21363 22.4402 3.34137 22.4402 2.67504 22.1007C2.08892 21.8021 1.61239 21.3256 1.31375 20.7394C0.974243 20.0731 0.974243 19.2008 0.974243 17.4563V14.2242Z" fill="#eeeeee"/>
</svg>
